# MagicaVoxel @ Ephtracy

# group
o 

# material
mtllib big_tree.mtl
usemtl palette

# normals
vn -1 0 0
vn 1 0 0
vn 0 0 1
vn 0 0 -1
vn 0 -1 0
vn 0 1 0

# texcoords
vt 0.369141 0.5
vt 0.373047 0.5
vt 0.892578 0.5
vt 0.900391 0.5

# verts
v -1 1.9 -0.1
v -1 1.9 -0.5
v -1 2.2 -0.1
v -1 2.2 -0.5
v -1 2.3 -0.1
v -1 2.3 -0.5
v -0.8 1.8 -0.3
v -0.8 1.8 -0.4
v -0.8 1.9 -0.3
v -0.8 1.9 -0.4
v -0.7 1.2 0.6
v -0.7 1.2 -0.1
v -0.7 1.2 -0.5
v -0.7 1.2 -0.9
v -0.7 1.3 -0.1
v -0.7 1.3 -0.5
v -0.7 1.3 -0.9
v -0.7 1.4 -0.5
v -0.7 1.4 -0.8
v -0.7 1.5 0.4
v -0.7 1.5 -0.1
v -0.7 1.5 -0.8
v -0.7 1.5 -0.9
v -0.7 1.6 0.6
v -0.7 1.6 0.4
v -0.7 1.7 0.4
v -0.7 1.7 -0.1
v -0.7 1.8 0.6
v -0.7 1.8 0.4
v -0.7 1.8 -0.3
v -0.7 1.8 -0.4
v -0.7 1.9 -0.1
v -0.7 1.9 -0.3
v -0.7 1.9 -0.4
v -0.7 1.9 -0.5
v -0.7 2 -0.5
v -0.7 2.3 -0.1
v -0.7 2.3 -0.4
v -0.7 2.3 -0.5
v -0.7 2.9 0.6
v -0.7 2.9 -0.9
v -0.3 2.6 0.9
v -0.3 2.6 0.6
v -0.3 2.9 0.6
v -0.3 2.9 0.3
v -0.3 3.1 0.9
v -0.3 3.1 0.3
v -0.1 0 -0.1
v -0.1 0 -0.3
v -0.1 0.4 -0.1
v -0.1 0.4 -0.3
v -0.1 1.2 -0.1
v -0.1 1.2 -0.3
v -0.1 2.5 0.7
v -0.1 2.5 0.6
v -0.1 2.6 0.7
v -0.1 2.6 0.6
v 0 2.4 0.7
v 0 2.4 0.6
v 0 2.5 0.7
v 0 2.5 0.6
v 0.3 1 -0.2
v 0.3 1 -0.3
v 0.3 1.1 -0.2
v 0.3 1.1 -0.3
v 0.6 1.1 -0.2
v 0.6 1.1 -0.3
v 0.6 1.2 -0.2
v 0.6 1.2 -0.3
v 0.1 0 -0.1
v 0.1 0 -0.3
v 0.1 0.4 -0.1
v 0.1 0.4 -0.3
v 0.1 0.9 -0.2
v 0.1 0.9 -0.3
v 0.1 1 -0.2
v 0.1 1 -0.3
v 0.1 1.2 -0.1
v 0.1 1.2 -0.3
v 0.1 2.4 0.7
v 0.1 2.4 0.6
v 0.1 2.6 0.7
v 0.1 2.6 0.6
v 0.2 2.6 0.9
v 0.2 2.6 0.8
v 0.2 2.6 0.6
v 0.2 2.7 0.9
v 0.2 2.7 0.8
v 0.2 2.9 0.6
v 0.2 2.9 0.3
v 0.2 3.1 0.9
v 0.2 3.1 0.3
v 0.4 0.9 -0.2
v 0.4 0.9 -0.3
v 0.4 1 -0.2
v 0.4 1 -0.3
v 0.7 1 -0.2
v 0.7 1 -0.3
v 0.7 1.1 -0.2
v 0.7 1.1 -0.3
v 0.7 1.2 0.6
v 0.7 1.2 -0.1
v 0.7 1.2 -0.3
v 0.7 1.2 -0.9
v 0.7 1.3 0.1
v 0.7 1.3 -0.1
v 0.7 1.3 -0.3
v 0.7 1.3 -0.4
v 0.7 1.4 0.6
v 0.7 1.4 0.5
v 0.7 1.5 0.6
v 0.7 1.5 0.5
v 0.7 1.5 -0.4
v 0.7 1.9 0.1
v 0.7 1.9 -0.4
v 0.7 2 -0.5
v 0.7 2 -0.7
v 0.7 2.1 -0.5
v 0.7 2.1 -0.7
v 0.7 2.1 -0.9
v 0.7 2.2 -0.6
v 0.7 2.2 -0.7
v 0.7 2.3 -0.6
v 0.7 2.3 -0.9
v 0.7 2.9 0.6
v 0.7 2.9 -0.9
v 0.8 1.1 -0.2
v 0.8 1.1 -0.3
v 0.8 1.2 -0.1
v 0.8 1.2 -0.2
v 0.8 1.3 -0.1
v 0.8 1.3 -0.3
v 1.1 1.3 0.1
v 1.1 1.3 0
v 1.1 1.3 -0.1
v 1.1 1.3 -0.4
v 1.1 1.4 0
v 1.1 1.4 -0.1
v 1.1 1.9 0.1
v 1.1 1.9 -0.4
v -0.3 2.6 0.9
v -0.3 3.1 0.9
v -0.2 2.6 0.9
v -0.2 2.7 0.9
v 0.2 2.6 0.9
v 0.2 2.7 0.9
v 0.2 3.1 0.9
v -0.1 2.5 0.7
v -0.1 2.6 0.7
v 0 2.4 0.7
v 0 2.5 0.7
v 0.1 2.4 0.7
v 0.1 2.6 0.7
v -0.7 1.2 0.6
v -0.7 1.6 0.6
v -0.7 1.8 0.6
v -0.7 2.9 0.6
v -0.6 1.6 0.6
v -0.6 1.7 0.6
v -0.5 1.7 0.6
v -0.5 1.8 0.6
v -0.3 2.6 0.6
v -0.3 2.9 0.6
v -0.2 2.4 0.6
v -0.2 2.6 0.6
v -0.1 2.5 0.6
v -0.1 2.6 0.6
v 0 2.4 0.6
v 0 2.5 0.6
v 0.1 1.4 0.6
v 0.1 1.5 0.6
v 0.1 2.4 0.6
v 0.1 2.6 0.6
v 0.2 1.5 0.6
v 0.2 1.6 0.6
v 0.2 2.6 0.6
v 0.2 2.9 0.6
v 0.3 1.3 0.6
v 0.3 1.4 0.6
v 0.3 2.5 0.6
v 0.3 2.6 0.6
v 0.4 2.4 0.6
v 0.4 2.5 0.6
v 0.5 1.5 0.6
v 0.5 1.6 0.6
v 0.6 1.3 0.6
v 0.6 1.4 0.6
v 0.7 1.2 0.6
v 0.7 1.4 0.6
v 0.7 1.5 0.6
v 0.7 2.9 0.6
v 0.7 1.3 0.1
v 0.7 1.9 0.1
v 1.1 1.3 0.1
v 1.1 1.9 0.1
v -1 1.9 -0.1
v -1 2.2 -0.1
v -1 2.3 -0.1
v -0.9 2.2 -0.1
v -0.9 2.3 -0.1
v -0.7 1.9 -0.1
v -0.7 2.3 -0.1
v -0.1 0 -0.1
v -0.1 0.4 -0.1
v -0.1 1.2 -0.1
v 0.1 0 -0.1
v 0.1 0.4 -0.1
v 0.1 1.2 -0.1
v 0.7 1.2 -0.1
v 0.7 1.3 -0.1
v 0.8 1.2 -0.1
v 0.8 1.3 -0.1
v 0.1 0.9 -0.2
v 0.1 1 -0.2
v 0.3 1 -0.2
v 0.3 1.1 -0.2
v 0.4 0.9 -0.2
v 0.4 1 -0.2
v 0.6 1.1 -0.2
v 0.6 1.2 -0.2
v 0.7 1 -0.2
v 0.7 1.1 -0.2
v 0.7 1.2 -0.2
v 0.8 1.1 -0.2
v 0.8 1.2 -0.2
v -0.8 1.8 -0.3
v -0.8 1.9 -0.3
v -0.7 1.8 -0.3
v -0.7 1.9 -0.3
v -0.3 2.9 0.3
v -0.3 3.1 0.3
v 0.2 2.9 0.3
v 0.2 3.1 0.3
v -0.1 0 -0.3
v -0.1 0.4 -0.3
v -0.1 1.2 -0.3
v 0.1 0 -0.3
v 0.1 0.4 -0.3
v 0.1 0.9 -0.3
v 0.1 1 -0.3
v 0.1 1.2 -0.3
v 0.3 1 -0.3
v 0.3 1.1 -0.3
v 0.4 0.9 -0.3
v 0.4 1 -0.3
v 0.6 1.1 -0.3
v 0.6 1.2 -0.3
v 0.7 1 -0.3
v 0.7 1.1 -0.3
v 0.7 1.2 -0.3
v 0.7 1.3 -0.3
v 0.8 1.1 -0.3
v 0.8 1.3 -0.3
v -0.8 1.8 -0.4
v -0.8 1.9 -0.4
v -0.7 1.8 -0.4
v -0.7 1.9 -0.4
v 0.7 1.3 -0.4
v 0.7 1.5 -0.4
v 0.7 1.9 -0.4
v 0.9 1.4 -0.4
v 0.9 1.5 -0.4
v 1 1.3 -0.4
v 1 1.4 -0.4
v 1.1 1.3 -0.4
v 1.1 1.9 -0.4
v -1 1.9 -0.5
v -1 2.2 -0.5
v -1 2.3 -0.5
v -0.9 2.1 -0.5
v -0.9 2.2 -0.5
v -0.8 2 -0.5
v -0.8 2.1 -0.5
v -0.7 1.9 -0.5
v -0.7 2 -0.5
v -0.7 2.3 -0.5
v -0.7 1.2 -0.9
v -0.7 1.3 -0.9
v -0.7 1.5 -0.9
v -0.7 2.9 -0.9
v -0.6 1.5 -0.9
v -0.6 1.6 -0.9
v -0.2 1.4 -0.9
v -0.2 1.6 -0.9
v 0 1.3 -0.9
v 0 1.4 -0.9
v 0.2 1.4 -0.9
v 0.2 1.5 -0.9
v 0.2 2.2 -0.9
v 0.2 2.3 -0.9
v 0.3 1.3 -0.9
v 0.3 1.4 -0.9
v 0.3 1.5 -0.9
v 0.3 1.6 -0.9
v 0.4 1.5 -0.9
v 0.4 1.6 -0.9
v 0.4 2 -0.9
v 0.4 2.2 -0.9
v 0.5 1.3 -0.9
v 0.5 1.4 -0.9
v 0.5 2 -0.9
v 0.5 2.1 -0.9
v 0.6 1.4 -0.9
v 0.6 1.5 -0.9
v 0.7 1.2 -0.9
v 0.7 2.1 -0.9
v 0.7 2.3 -0.9
v 0.7 2.9 -0.9
v -0.1 0 -0.1
v 0.1 0 -0.1
v -0.1 0 -0.3
v 0.1 0 -0.3
v 0.1 0.9 -0.2
v 0.4 0.9 -0.2
v 0.1 0.9 -0.3
v 0.4 0.9 -0.3
v 0.4 1 -0.2
v 0.7 1 -0.2
v 0.4 1 -0.3
v 0.7 1 -0.3
v 0.7 1.1 -0.2
v 0.8 1.1 -0.2
v 0.7 1.1 -0.3
v 0.8 1.1 -0.3
v -0.7 1.2 0.6
v 0.7 1.2 0.6
v -0.6 1.2 0.1
v -0.5 1.2 0.1
v -0.7 1.2 -0.1
v -0.6 1.2 -0.1
v -0.5 1.2 -0.1
v -0.4 1.2 -0.1
v -0.1 1.2 -0.1
v 0.1 1.2 -0.1
v 0.7 1.2 -0.1
v 0.8 1.2 -0.1
v 0.6 1.2 -0.2
v 0.7 1.2 -0.2
v 0.8 1.2 -0.2
v -0.1 1.2 -0.3
v 0.1 1.2 -0.3
v 0.6 1.2 -0.3
v 0.7 1.2 -0.3
v -0.7 1.2 -0.5
v -0.5 1.2 -0.5
v -0.5 1.2 -0.6
v -0.4 1.2 -0.6
v -0.7 1.2 -0.9
v 0.7 1.2 -0.9
v 0.7 1.3 0.1
v 1.1 1.3 0.1
v 1 1.3 0
v 1.1 1.3 0
v 0.7 1.3 -0.1
v 0.8 1.3 -0.1
v 1 1.3 -0.1
v 1.1 1.3 -0.1
v 0.7 1.3 -0.3
v 0.8 1.3 -0.3
v 1 1.3 -0.3
v 0.7 1.3 -0.4
v 1 1.3 -0.4
v 1.1 1.3 -0.4
v -0.8 1.8 -0.3
v -0.7 1.8 -0.3
v -0.8 1.8 -0.4
v -0.7 1.8 -0.4
v -1 1.9 -0.1
v -0.7 1.9 -0.1
v -0.8 1.9 -0.3
v -0.7 1.9 -0.3
v -0.8 1.9 -0.4
v -0.7 1.9 -0.4
v -1 1.9 -0.5
v -0.7 1.9 -0.5
v 0 2.4 0.7
v 0.1 2.4 0.7
v 0 2.4 0.6
v 0.1 2.4 0.6
v -0.1 2.5 0.7
v 0 2.5 0.7
v -0.1 2.5 0.6
v 0 2.5 0.6
v -0.3 2.6 0.9
v -0.2 2.6 0.9
v 0.2 2.6 0.9
v -0.2 2.6 0.8
v 0.2 2.6 0.8
v -0.1 2.6 0.7
v 0.1 2.6 0.7
v -0.3 2.6 0.6
v -0.2 2.6 0.6
v -0.1 2.6 0.6
v 0.1 2.6 0.6
v 0.2 2.6 0.6
v 0.1 1 -0.2
v 0.3 1 -0.2
v 0.1 1 -0.3
v 0.3 1 -0.3
v 0.3 1.1 -0.2
v 0.6 1.1 -0.2
v 0.3 1.1 -0.3
v 0.6 1.1 -0.3
v 0.7 1.9 0.1
v 1.1 1.9 0.1
v 0.7 1.9 -0.4
v 1.1 1.9 -0.4
v -1 2.3 -0.1
v -0.9 2.3 -0.1
v -0.7 2.3 -0.1
v -0.9 2.3 -0.2
v -0.8 2.3 -0.2
v -0.8 2.3 -0.4
v -0.7 2.3 -0.4
v -1 2.3 -0.5
v -0.7 2.3 -0.5
v -0.7 2.9 0.6
v -0.3 2.9 0.6
v 0.2 2.9 0.6
v 0.7 2.9 0.6
v -0.3 2.9 0.3
v 0.2 2.9 0.3
v -0.7 2.9 -0.9
v 0.7 2.9 -0.9
v -0.3 3.1 0.9
v 0.2 3.1 0.9
v -0.3 3.1 0.3
v 0.2 3.1 0.3

# faces
f 3/4/1 2/4/1 1/4/1
f 4/4/1 2/4/1 3/4/1
f 5/3/1 4/3/1 3/3/1
f 6/3/1 4/3/1 5/3/1
f 9/2/1 8/2/1 7/2/1
f 10/2/1 8/2/1 9/2/1
f 15/3/1 12/3/1 11/3/1
f 15/4/1 13/4/1 12/4/1
f 16/3/1 14/3/1 13/3/1
f 16/4/1 13/4/1 15/4/1
f 17/3/1 14/3/1 16/3/1
f 18/3/1 16/3/1 15/3/1
f 18/4/1 17/4/1 16/4/1
f 19/4/1 17/4/1 18/4/1
f 20/3/1 15/3/1 11/3/1
f 20/3/1 18/3/1 15/3/1
f 20/3/1 19/3/1 18/3/1
f 21/3/1 19/3/1 20/3/1
f 22/4/1 17/4/1 19/4/1
f 22/3/1 19/3/1 21/3/1
f 23/4/1 17/4/1 22/4/1
f 24/3/1 20/3/1 11/3/1
f 25/4/1 21/4/1 20/4/1
f 25/3/1 20/3/1 24/3/1
f 26/4/1 25/4/1 24/4/1
f 26/4/1 21/4/1 25/4/1
f 27/3/1 22/3/1 21/3/1
f 27/4/1 21/4/1 26/4/1
f 27/3/1 23/3/1 22/3/1
f 28/4/1 26/4/1 24/4/1
f 29/3/1 27/3/1 26/3/1
f 29/4/1 26/4/1 28/4/1
f 30/3/1 23/3/1 27/3/1
f 30/3/1 27/3/1 29/3/1
f 31/3/1 23/3/1 30/3/1
f 32/3/1 29/3/1 28/3/1
f 32/3/1 30/3/1 29/3/1
f 33/3/1 30/3/1 32/3/1
f 34/3/1 23/3/1 31/3/1
f 35/3/1 23/3/1 34/3/1
f 36/3/1 23/3/1 35/3/1
f 37/3/1 32/3/1 28/3/1
f 39/3/1 23/3/1 36/3/1
f 40/3/1 38/3/1 37/3/1
f 40/3/1 39/3/1 38/3/1
f 40/3/1 37/3/1 28/3/1
f 41/3/1 23/3/1 39/3/1
f 41/3/1 39/3/1 40/3/1
f 44/3/1 43/3/1 42/3/1
f 46/3/1 44/3/1 42/3/1
f 46/3/1 45/3/1 44/3/1
f 47/3/1 45/3/1 46/3/1
f 50/1/1 49/1/1 48/1/1
f 51/1/1 49/1/1 50/1/1
f 52/2/1 51/2/1 50/2/1
f 53/2/1 51/2/1 52/2/1
f 56/2/1 55/2/1 54/2/1
f 57/2/1 55/2/1 56/2/1
f 60/2/1 59/2/1 58/2/1
f 61/2/1 59/2/1 60/2/1
f 64/2/1 63/2/1 62/2/1
f 65/2/1 63/2/1 64/2/1
f 68/2/1 67/2/1 66/2/1
f 69/2/1 67/2/1 68/2/1
f 70/1/2 71/1/2 72/1/2
f 72/1/2 71/1/2 73/1/2
f 72/2/2 73/2/2 74/2/2
f 74/2/2 73/2/2 75/2/2
f 72/2/2 74/2/2 76/2/2
f 72/2/2 76/2/2 78/2/2
f 76/2/2 77/2/2 78/2/2
f 78/2/2 77/2/2 79/2/2
f 80/2/2 81/2/2 82/2/2
f 82/2/2 81/2/2 83/2/2
f 84/4/2 85/4/2 87/4/2
f 85/3/2 86/3/2 88/3/2
f 87/4/2 85/4/2 88/4/2
f 87/3/2 88/3/2 89/3/2
f 88/3/2 86/3/2 89/3/2
f 87/3/2 89/3/2 91/3/2
f 89/3/2 90/3/2 91/3/2
f 91/3/2 90/3/2 92/3/2
f 93/2/2 94/2/2 95/2/2
f 95/2/2 94/2/2 96/2/2
f 97/2/2 98/2/2 99/2/2
f 99/2/2 98/2/2 100/2/2
f 101/3/2 102/3/2 105/3/2
f 105/3/2 102/3/2 106/3/2
f 103/3/2 104/3/2 107/3/2
f 107/3/2 104/3/2 108/3/2
f 101/3/2 105/3/2 109/3/2
f 109/3/2 105/3/2 110/3/2
f 109/4/2 110/4/2 111/4/2
f 110/3/2 105/3/2 112/3/2
f 111/4/2 110/4/2 112/4/2
f 108/3/2 104/3/2 113/3/2
f 112/3/2 105/3/2 114/3/2
f 111/3/2 112/3/2 114/3/2
f 113/3/2 104/3/2 115/3/2
f 115/3/2 104/3/2 116/3/2
f 114/3/2 115/3/2 116/3/2
f 116/3/2 104/3/2 117/3/2
f 114/3/2 116/3/2 118/3/2
f 116/4/2 117/4/2 118/4/2
f 117/3/2 104/3/2 119/3/2
f 118/4/2 117/4/2 119/4/2
f 119/3/2 104/3/2 120/3/2
f 118/3/2 119/3/2 121/3/2
f 119/4/2 120/4/2 122/4/2
f 121/3/2 119/3/2 122/3/2
f 118/3/2 121/3/2 123/3/2
f 121/4/2 122/4/2 123/4/2
f 122/4/2 120/4/2 124/4/2
f 123/4/2 122/4/2 124/4/2
f 111/3/2 114/3/2 125/3/2
f 114/3/2 118/3/2 125/3/2
f 123/3/2 124/3/2 125/3/2
f 118/3/2 123/3/2 125/3/2
f 125/3/2 124/3/2 126/3/2
f 127/2/2 128/2/2 130/2/2
f 129/2/2 130/2/2 131/2/2
f 130/2/2 128/2/2 132/2/2
f 131/2/2 130/2/2 132/2/2
f 133/3/2 134/3/2 137/3/2
f 134/4/2 135/4/2 137/4/2
f 135/3/2 136/3/2 138/3/2
f 137/4/2 135/4/2 138/4/2
f 133/3/2 137/3/2 139/3/2
f 137/3/2 138/3/2 139/3/2
f 138/3/2 136/3/2 140/3/2
f 139/3/2 138/3/2 140/3/2
f 143/3/3 142/3/3 141/3/3
f 144/3/3 142/3/3 143/3/3
f 145/4/3 144/4/3 143/4/3
f 146/3/3 142/3/3 144/3/3
f 146/4/3 144/4/3 145/4/3
f 147/3/3 142/3/3 146/3/3
f 151/2/3 149/2/3 148/2/3
f 152/2/3 151/2/3 150/2/3
f 153/2/3 149/2/3 151/2/3
f 153/2/3 151/2/3 152/2/3
f 158/3/3 155/3/3 154/3/3
f 158/4/3 156/4/3 155/4/3
f 159/4/3 156/4/3 158/4/3
f 160/3/3 159/3/3 158/3/3
f 160/4/3 156/4/3 159/4/3
f 161/3/3 157/3/3 156/3/3
f 161/4/3 156/4/3 160/4/3
f 162/3/3 161/3/3 160/3/3
f 162/3/3 157/3/3 161/3/3
f 163/3/3 157/3/3 162/3/3
f 164/3/3 162/3/3 160/3/3
f 165/3/3 162/3/3 164/3/3
f 166/4/3 165/4/3 164/4/3
f 167/4/3 165/4/3 166/4/3
f 168/3/3 164/3/3 160/3/3
f 168/4/3 166/4/3 164/4/3
f 169/4/3 166/4/3 168/4/3
f 170/3/3 160/3/3 158/3/3
f 170/3/3 158/3/3 154/3/3
f 170/3/3 168/3/3 160/3/3
f 171/3/3 168/3/3 170/3/3
f 172/3/3 168/3/3 171/3/3
f 174/3/3 172/3/3 171/3/3
f 174/4/3 171/4/3 170/4/3
f 175/3/3 172/3/3 174/3/3
f 176/4/3 173/4/3 172/4/3
f 178/3/3 170/3/3 154/3/3
f 179/4/3 175/4/3 174/4/3
f 179/3/3 170/3/3 178/3/3
f 179/4/3 174/4/3 170/4/3
f 180/4/3 176/4/3 172/4/3
f 181/3/3 177/3/3 176/3/3
f 181/4/3 176/4/3 180/4/3
f 182/3/3 172/3/3 175/3/3
f 182/4/3 180/4/3 172/4/3
f 183/3/3 181/3/3 180/3/3
f 183/4/3 180/4/3 182/4/3
f 184/4/3 175/4/3 179/4/3
f 184/4/3 179/4/3 178/4/3
f 185/3/3 182/3/3 175/3/3
f 185/4/3 175/4/3 184/4/3
f 185/3/3 183/3/3 182/3/3
f 186/3/3 178/3/3 154/3/3
f 186/4/3 184/4/3 178/4/3
f 187/4/3 184/4/3 186/4/3
f 188/3/3 186/3/3 154/3/3
f 188/3/3 187/3/3 186/3/3
f 189/4/3 184/4/3 187/4/3
f 189/3/3 187/3/3 188/3/3
f 190/3/3 185/3/3 184/3/3
f 190/4/3 184/4/3 189/4/3
f 191/3/3 177/3/3 181/3/3
f 191/3/3 185/3/3 190/3/3
f 191/3/3 181/3/3 183/3/3
f 191/3/3 183/3/3 185/3/3
f 194/3/3 193/3/3 192/3/3
f 195/3/3 193/3/3 194/3/3
f 199/4/3 197/4/3 196/4/3
f 199/3/3 198/3/3 197/3/3
f 200/3/3 198/3/3 199/3/3
f 201/4/3 199/4/3 196/4/3
f 201/4/3 200/4/3 199/4/3
f 202/4/3 200/4/3 201/4/3
f 206/1/3 204/1/3 203/1/3
f 207/2/3 205/2/3 204/2/3
f 207/1/3 204/1/3 206/1/3
f 208/2/3 205/2/3 207/2/3
f 211/2/3 210/2/3 209/2/3
f 212/2/3 210/2/3 211/2/3
f 215/2/3 214/2/3 213/2/3
f 217/2/3 215/2/3 213/2/3
f 217/2/3 216/2/3 215/2/3
f 218/2/3 216/2/3 217/2/3
f 219/2/3 216/2/3 218/2/3
f 221/2/3 219/2/3 218/2/3
f 221/2/3 220/2/3 219/2/3
f 222/2/3 220/2/3 221/2/3
f 223/2/3 220/2/3 222/2/3
f 224/2/3 223/2/3 222/2/3
f 225/2/3 223/2/3 224/2/3
f 228/2/3 227/2/3 226/2/3
f 229/2/3 227/2/3 228/2/3
f 230/3/4 231/3/4 232/3/4
f 232/3/4 231/3/4 233/3/4
f 234/1/4 235/1/4 237/1/4
f 235/2/4 236/2/4 238/2/4
f 237/1/4 235/1/4 238/1/4
f 238/2/4 236/2/4 239/2/4
f 239/2/4 236/2/4 240/2/4
f 240/2/4 236/2/4 241/2/4
f 239/2/4 240/2/4 242/2/4
f 239/2/4 242/2/4 244/2/4
f 242/2/4 243/2/4 244/2/4
f 244/2/4 243/2/4 245/2/4
f 245/2/4 243/2/4 246/2/4
f 245/2/4 246/2/4 248/2/4
f 246/2/4 247/2/4 248/2/4
f 248/2/4 247/2/4 249/2/4
f 249/2/4 247/2/4 250/2/4
f 249/2/4 250/2/4 252/2/4
f 250/2/4 251/2/4 252/2/4
f 252/2/4 251/2/4 253/2/4
f 254/2/4 255/2/4 256/2/4
f 256/2/4 255/2/4 257/2/4
f 258/4/4 259/4/4 261/4/4
f 259/3/4 260/3/4 262/3/4
f 261/4/4 259/4/4 262/4/4
f 258/4/4 261/4/4 263/4/4
f 261/3/4 262/3/4 264/3/4
f 263/4/4 261/4/4 264/4/4
f 263/3/4 264/3/4 265/3/4
f 262/3/4 260/3/4 266/3/4
f 265/3/4 264/3/4 266/3/4
f 264/3/4 262/3/4 266/3/4
f 267/4/4 268/4/4 270/4/4
f 268/3/4 269/3/4 271/3/4
f 270/4/4 268/4/4 271/4/4
f 267/4/4 270/4/4 272/4/4
f 270/3/4 271/3/4 273/3/4
f 272/4/4 270/4/4 273/4/4
f 267/4/4 272/4/4 274/4/4
f 272/3/4 273/3/4 275/3/4
f 274/4/4 272/4/4 275/4/4
f 271/3/4 269/3/4 276/3/4
f 275/3/4 273/3/4 276/3/4
f 273/3/4 271/3/4 276/3/4
f 278/4/4 279/4/4 281/4/4
f 279/3/4 280/3/4 281/3/4
f 281/3/4 280/3/4 282/3/4
f 278/4/4 281/4/4 283/4/4
f 281/4/4 282/4/4 283/4/4
f 282/3/4 280/3/4 284/3/4
f 283/4/4 282/4/4 284/4/4
f 277/3/4 278/3/4 285/3/4
f 278/4/4 283/4/4 285/4/4
f 283/3/4 284/3/4 286/3/4
f 285/4/4 283/4/4 286/4/4
f 285/3/4 286/3/4 287/3/4
f 286/3/4 284/3/4 287/3/4
f 287/3/4 284/3/4 288/3/4
f 284/3/4 280/3/4 289/3/4
f 288/3/4 284/3/4 289/3/4
f 289/3/4 280/3/4 290/3/4
f 277/3/4 285/3/4 291/3/4
f 285/3/4 287/3/4 291/3/4
f 287/4/4 288/4/4 292/4/4
f 291/3/4 287/3/4 292/3/4
f 288/3/4 289/3/4 293/3/4
f 292/4/4 288/4/4 293/4/4
f 293/3/4 289/3/4 294/3/4
f 291/4/4 292/4/4 295/4/4
f 292/4/4 293/4/4 295/4/4
f 293/4/4 294/4/4 295/4/4
f 294/3/4 289/3/4 296/3/4
f 295/4/4 294/4/4 296/4/4
f 296/3/4 289/3/4 297/3/4
f 289/4/4 290/4/4 298/4/4
f 297/3/4 289/3/4 298/3/4
f 277/3/4 291/3/4 299/3/4
f 291/4/4 295/4/4 299/4/4
f 299/4/4 295/4/4 300/4/4
f 296/3/4 297/3/4 301/3/4
f 297/4/4 298/4/4 301/4/4
f 295/3/4 296/3/4 301/3/4
f 301/4/4 298/4/4 302/4/4
f 300/4/4 295/4/4 303/4/4
f 299/3/4 300/3/4 303/3/4
f 301/3/4 302/3/4 304/3/4
f 303/4/4 295/4/4 304/4/4
f 295/3/4 301/3/4 304/3/4
f 299/3/4 303/3/4 305/3/4
f 277/3/4 299/3/4 305/3/4
f 303/3/4 304/3/4 305/3/4
f 302/4/4 298/4/4 306/4/4
f 305/3/4 304/3/4 306/3/4
f 304/3/4 302/3/4 306/3/4
f 298/4/4 290/4/4 307/4/4
f 306/4/4 298/4/4 307/4/4
f 290/3/4 280/3/4 307/3/4
f 307/3/4 280/3/4 308/3/4
f 311/1/5 310/1/5 309/1/5
f 312/1/5 310/1/5 311/1/5
f 315/2/5 314/2/5 313/2/5
f 316/2/5 314/2/5 315/2/5
f 319/2/5 318/2/5 317/2/5
f 320/2/5 318/2/5 319/2/5
f 323/2/5 322/2/5 321/2/5
f 324/2/5 322/2/5 323/2/5
f 327/3/5 326/3/5 325/3/5
f 328/3/5 326/3/5 327/3/5
f 329/3/5 327/3/5 325/3/5
f 330/4/5 328/4/5 327/4/5
f 330/3/5 327/3/5 329/3/5
f 331/3/5 326/3/5 328/3/5
f 331/4/5 328/4/5 330/4/5
f 332/3/5 326/3/5 331/3/5
f 333/3/5 326/3/5 332/3/5
f 334/3/5 326/3/5 333/3/5
f 335/3/5 326/3/5 334/3/5
f 337/3/5 335/3/5 334/3/5
f 338/2/5 336/2/5 335/2/5
f 338/3/5 335/3/5 337/3/5
f 339/2/5 336/2/5 338/2/5
f 340/3/5 333/3/5 332/3/5
f 341/3/5 337/3/5 334/3/5
f 342/3/5 337/3/5 341/3/5
f 344/4/5 330/4/5 329/4/5
f 344/4/5 331/4/5 330/4/5
f 344/4/5 332/4/5 331/4/5
f 345/4/5 332/4/5 344/4/5
f 346/3/5 345/3/5 344/3/5
f 346/4/5 332/4/5 345/4/5
f 347/3/5 343/3/5 342/3/5
f 347/4/5 332/4/5 346/4/5
f 347/3/5 342/3/5 341/3/5
f 347/3/5 341/3/5 340/3/5
f 347/3/5 340/3/5 332/3/5
f 348/3/5 346/3/5 344/3/5
f 348/3/5 347/3/5 346/3/5
f 349/3/5 343/3/5 347/3/5
f 349/3/5 347/3/5 348/3/5
f 352/3/5 351/3/5 350/3/5
f 353/3/5 351/3/5 352/3/5
f 354/3/5 352/3/5 350/3/5
f 355/3/5 352/3/5 354/3/5
f 356/4/5 353/4/5 352/4/5
f 356/3/5 352/3/5 355/3/5
f 357/4/5 353/4/5 356/4/5
f 359/3/5 356/3/5 355/3/5
f 359/3/5 357/3/5 356/3/5
f 360/3/5 357/3/5 359/3/5
f 361/4/5 359/4/5 358/4/5
f 361/4/5 360/4/5 359/4/5
f 362/3/5 357/3/5 360/3/5
f 362/4/5 360/4/5 361/4/5
f 363/3/5 357/3/5 362/3/5
f 366/2/5 365/2/5 364/2/5
f 367/2/5 365/2/5 366/2/5
f 370/4/5 369/4/5 368/4/5
f 371/4/5 369/4/5 370/4/5
f 372/4/5 370/4/5 368/4/5
f 374/4/5 372/4/5 368/4/5
f 374/4/5 373/4/5 372/4/5
f 375/4/5 373/4/5 374/4/5
f 378/2/5 377/2/5 376/2/5
f 379/2/5 377/2/5 378/2/5
f 382/2/5 381/2/5 380/2/5
f 383/2/5 381/2/5 382/2/5
f 387/3/5 385/3/5 384/3/5
f 387/4/5 386/4/5 385/4/5
f 388/4/5 386/4/5 387/4/5
f 389/3/5 388/3/5 387/3/5
f 390/3/5 388/3/5 389/3/5
f 391/3/5 387/3/5 384/3/5
f 391/3/5 389/3/5 387/3/5
f 392/3/5 389/3/5 391/3/5
f 393/3/5 389/3/5 392/3/5
f 394/3/5 388/3/5 390/3/5
f 395/3/5 388/3/5 394/3/5
f 396/2/6 397/2/6 398/2/6
f 398/2/6 397/2/6 399/2/6
f 400/2/6 401/2/6 402/2/6
f 402/2/6 401/2/6 403/2/6
f 404/3/6 405/3/6 406/3/6
f 406/3/6 405/3/6 407/3/6
f 408/3/6 409/3/6 411/3/6
f 409/4/6 410/4/6 411/4/6
f 411/4/6 410/4/6 412/4/6
f 411/3/6 412/3/6 413/3/6
f 412/4/6 410/4/6 413/4/6
f 413/4/6 410/4/6 414/4/6
f 408/3/6 411/3/6 415/3/6
f 411/3/6 413/3/6 415/3/6
f 413/3/6 414/3/6 415/3/6
f 415/3/6 414/3/6 416/3/6
f 417/3/6 418/3/6 421/3/6
f 419/3/6 420/3/6 422/3/6
f 417/3/6 421/3/6 423/3/6
f 421/3/6 422/3/6 423/3/6
f 422/3/6 420/3/6 424/3/6
f 423/3/6 422/3/6 424/3/6
f 425/3/6 426/3/6 427/3/6
f 427/3/6 426/3/6 428/3/6
