# MagicaVoxel @ Ephtracy

# group
o 

# material
mtllib bus_stop-1.mtl
usemtl palette

# normals
vn -1 0 0
vn 1 0 0
vn 0 0 1
vn 0 0 -1
vn 0 -1 0
vn 0 1 0

# texcoords
vt 0.537109 0.5
vt 0.705078 0.5
vt 0.982422 0.5

# verts
v -0.7 1.2 0.9
v -0.7 1.2 0.8
v -0.7 1.2 -0.8
v -0.7 1.2 -0.9
v -0.7 1.3 1
v -0.7 1.3 0.9
v -0.7 1.3 0.8
v -0.7 1.3 -0.8
v -0.7 1.3 -0.9
v -0.7 1.3 -1
v -0.7 1.5 1
v -0.7 1.5 -1
v -0.6 0 0.9
v -0.6 0 0.8
v -0.6 0 -0.8
v -0.6 0 -0.9
v -0.6 0.2 0.8
v -0.6 0.2 -0.8
v -0.6 0.3 0.8
v -0.6 0.3 0.7
v -0.6 0.3 -0.7
v -0.6 0.3 -0.8
v -0.6 1.2 0.9
v -0.6 1.2 0.8
v -0.6 1.2 0.7
v -0.6 1.2 -0.7
v -0.6 1.2 -0.8
v -0.6 1.2 -0.9
v -0.6 1.3 0.8
v -0.6 1.3 -0.8
v -0.5 0 0.7
v -0.5 0 0.6
v -0.5 0 -0.6
v -0.5 0 -0.7
v -0.5 0.2 0.7
v -0.5 0.2 0.6
v -0.5 0.2 -0.6
v -0.5 0.2 -0.7
v -0.4 0.2 0.7
v -0.4 0.2 0.6
v -0.4 0.2 -0.6
v -0.4 0.2 -0.7
v -0.4 0.3 0.9
v -0.4 0.3 0.8
v -0.4 0.3 0.7
v -0.4 0.3 0.6
v -0.4 0.3 -0.6
v -0.4 0.3 -0.7
v -0.4 0.3 -0.8
v -0.4 0.3 -0.9
v -0.4 1.2 0.9
v -0.4 1.2 0.8
v -0.4 1.2 -0.8
v -0.4 1.2 -0.9
v 0.6 0 0.9
v 0.6 0 0.8
v 0.6 0 -0.8
v 0.6 0 -0.9
v 0.6 0.2 0.9
v 0.6 0.2 0.8
v 0.6 0.2 -0.8
v 0.6 0.2 -0.9
v 0.6 0.3 0.9
v 0.6 0.3 0.8
v 0.6 0.3 -0.8
v 0.6 0.3 -0.9
v 0.6 1.2 0.9
v 0.6 1.2 0.8
v 0.6 1.2 -0.8
v 0.6 1.2 -0.9
v 0.6 1.3 0.9
v 0.6 1.3 0.8
v 0.6 1.3 -0.8
v 0.6 1.3 -0.9
v 0.6 1.4 0.9
v 0.6 1.4 0.8
v 0.6 1.4 -0.8
v 0.6 1.4 -0.9
v -0.6 1.3 1
v -0.6 1.3 0.9
v -0.6 1.3 -0.9
v -0.6 1.3 -1
v -0.6 1.4 1
v -0.6 1.4 -1
v -0.5 0 0.9
v -0.5 0 0.8
v -0.5 0 -0.8
v -0.5 0 -0.9
v -0.5 0.2 0.9
v -0.5 0.2 0.8
v -0.5 0.2 0.7
v -0.5 0.2 0.6
v -0.5 0.2 -0.6
v -0.5 0.2 -0.7
v -0.5 0.2 -0.8
v -0.5 0.2 -0.9
v -0.5 0.3 0.9
v -0.5 0.3 0.8
v -0.5 0.3 0.7
v -0.5 0.3 -0.7
v -0.5 0.3 -0.8
v -0.5 0.3 -0.9
v -0.5 0.5 0.6
v -0.5 0.5 -0.6
v -0.5 0.6 0.6
v -0.5 0.6 -0.6
v -0.5 0.7 0.7
v -0.5 0.7 -0.7
v -0.5 1.2 0.9
v -0.5 1.2 0.8
v -0.5 1.2 0.7
v -0.5 1.2 -0.7
v -0.5 1.2 -0.8
v -0.5 1.2 -0.9
v -0.5 1.3 0.8
v -0.5 1.3 -0.8
v -0.4 0 0.7
v -0.4 0 0.6
v -0.4 0 -0.6
v -0.4 0 -0.7
v -0.4 0.1 0.7
v -0.4 0.1 0.6
v -0.4 0.1 -0.6
v -0.4 0.1 -0.7
v -0.4 0.4 0.7
v -0.4 0.4 -0.7
v -0.4 0.5 0.6
v -0.4 0.5 -0.6
v -0.4 0.6 0.6
v -0.4 0.6 -0.6
v -0.4 0.7 0.7
v -0.4 0.7 -0.7
v -0.3 0.1 0.7
v -0.3 0.1 0.6
v -0.3 0.1 -0.6
v -0.3 0.1 -0.7
v -0.3 0.2 0.7
v -0.3 0.2 0.6
v -0.3 0.2 -0.6
v -0.3 0.2 -0.7
v -0.2 0.2 0.7
v -0.2 0.2 0.6
v -0.2 0.2 -0.6
v -0.2 0.2 -0.7
v -0.2 0.3 0.7
v -0.2 0.3 0.6
v -0.2 0.3 -0.6
v -0.2 0.3 -0.7
v -0.1 0.3 0.7
v -0.1 0.3 -0.7
v -0.1 0.4 0.7
v -0.1 0.4 -0.7
v 0.5 0.3 0.9
v 0.5 0.3 0.8
v 0.5 0.3 -0.8
v 0.5 0.3 -0.9
v 0.5 1.2 0.9
v 0.5 1.2 0.8
v 0.5 1.2 -0.8
v 0.5 1.2 -0.9
v 0.7 0 0.9
v 0.7 0 0.8
v 0.7 0 -0.8
v 0.7 0 -0.9
v 0.7 1.2 0.9
v 0.7 1.2 0.8
v 0.7 1.2 -0.8
v 0.7 1.2 -0.9
v 0.7 1.3 0.9
v 0.7 1.3 0.8
v 0.7 1.3 -0.8
v 0.7 1.3 -0.9
v 0.7 1.4 0.9
v 0.7 1.4 0.8
v 0.7 1.4 -0.8
v 0.7 1.4 -0.9
v 0.8 1.2 0.9
v 0.8 1.2 0.8
v 0.8 1.2 -0.8
v 0.8 1.2 -0.9
v 0.8 1.3 0.9
v 0.8 1.3 0.8
v 0.8 1.3 -0.8
v 0.8 1.3 -0.9
v 0.8 1.4 1
v 0.8 1.4 -1
v 0.8 1.5 1
v 0.8 1.5 -1
v -0.7 1.3 1
v -0.7 1.5 1
v -0.6 1.3 1
v -0.6 1.4 1
v 0.8 1.4 1
v 0.8 1.5 1
v -0.7 1.2 0.9
v -0.7 1.3 0.9
v -0.6 0 0.9
v -0.6 1.2 0.9
v -0.6 1.3 0.9
v -0.5 0 0.9
v -0.5 0.2 0.9
v -0.5 0.3 0.9
v -0.5 1.2 0.9
v -0.4 0.3 0.9
v -0.4 1.2 0.9
v 0.5 0.3 0.9
v 0.5 1.2 0.9
v 0.6 0 0.9
v 0.6 0.2 0.9
v 0.6 0.3 0.9
v 0.6 1.2 0.9
v 0.6 1.3 0.9
v 0.6 1.4 0.9
v 0.7 0 0.9
v 0.7 1.2 0.9
v 0.7 1.3 0.9
v 0.7 1.4 0.9
v 0.8 1.2 0.9
v 0.8 1.3 0.9
v -0.6 0.3 0.7
v -0.6 1.2 0.7
v -0.5 0 0.7
v -0.5 0.2 0.7
v -0.5 0.3 0.7
v -0.5 0.7 0.7
v -0.5 1.2 0.7
v -0.4 0 0.7
v -0.4 0.1 0.7
v -0.4 0.2 0.7
v -0.4 0.3 0.7
v -0.4 0.4 0.7
v -0.4 0.7 0.7
v -0.3 0.1 0.7
v -0.3 0.2 0.7
v -0.2 0.2 0.7
v -0.2 0.3 0.7
v -0.1 0.3 0.7
v -0.1 0.4 0.7
v -0.5 0 -0.6
v -0.5 0.2 -0.6
v -0.5 0.5 -0.6
v -0.5 0.6 -0.6
v -0.4 0 -0.6
v -0.4 0.1 -0.6
v -0.4 0.2 -0.6
v -0.4 0.3 -0.6
v -0.4 0.5 -0.6
v -0.4 0.6 -0.6
v -0.3 0.1 -0.6
v -0.3 0.2 -0.6
v -0.2 0.2 -0.6
v -0.2 0.3 -0.6
v -0.7 1.2 -0.8
v -0.7 1.3 -0.8
v -0.6 0 -0.8
v -0.6 0.2 -0.8
v -0.6 0.3 -0.8
v -0.6 1.2 -0.8
v -0.6 1.3 -0.8
v -0.5 0 -0.8
v -0.5 0.2 -0.8
v -0.5 0.3 -0.8
v -0.5 1.2 -0.8
v -0.5 1.3 -0.8
v -0.4 0.3 -0.8
v -0.4 1.2 -0.8
v 0.5 0.3 -0.8
v 0.5 1.2 -0.8
v 0.6 0 -0.8
v 0.6 0.2 -0.8
v 0.6 0.3 -0.8
v 0.6 1.2 -0.8
v 0.6 1.3 -0.8
v 0.6 1.4 -0.8
v 0.7 0 -0.8
v 0.7 1.2 -0.8
v 0.7 1.3 -0.8
v 0.7 1.4 -0.8
v 0.8 1.2 -0.8
v 0.8 1.3 -0.8
v -0.7 1.2 0.8
v -0.7 1.3 0.8
v -0.6 0 0.8
v -0.6 0.2 0.8
v -0.6 0.3 0.8
v -0.6 1.2 0.8
v -0.6 1.3 0.8
v -0.5 0 0.8
v -0.5 0.2 0.8
v -0.5 0.3 0.8
v -0.5 1.2 0.8
v -0.5 1.3 0.8
v -0.4 0.3 0.8
v -0.4 1.2 0.8
v 0.5 0.3 0.8
v 0.5 1.2 0.8
v 0.6 0 0.8
v 0.6 0.2 0.8
v 0.6 0.3 0.8
v 0.6 1.2 0.8
v 0.6 1.3 0.8
v 0.6 1.4 0.8
v 0.7 0 0.8
v 0.7 1.2 0.8
v 0.7 1.3 0.8
v 0.7 1.4 0.8
v 0.8 1.2 0.8
v 0.8 1.3 0.8
v -0.5 0 0.6
v -0.5 0.2 0.6
v -0.5 0.5 0.6
v -0.5 0.6 0.6
v -0.4 0 0.6
v -0.4 0.1 0.6
v -0.4 0.2 0.6
v -0.4 0.3 0.6
v -0.4 0.5 0.6
v -0.4 0.6 0.6
v -0.3 0.1 0.6
v -0.3 0.2 0.6
v -0.2 0.2 0.6
v -0.2 0.3 0.6
v -0.6 0.3 -0.7
v -0.6 1.2 -0.7
v -0.5 0 -0.7
v -0.5 0.2 -0.7
v -0.5 0.3 -0.7
v -0.5 0.7 -0.7
v -0.5 1.2 -0.7
v -0.4 0 -0.7
v -0.4 0.1 -0.7
v -0.4 0.2 -0.7
v -0.4 0.3 -0.7
v -0.4 0.4 -0.7
v -0.4 0.7 -0.7
v -0.3 0.1 -0.7
v -0.3 0.2 -0.7
v -0.2 0.2 -0.7
v -0.2 0.3 -0.7
v -0.1 0.3 -0.7
v -0.1 0.4 -0.7
v -0.7 1.2 -0.9
v -0.7 1.3 -0.9
v -0.6 0 -0.9
v -0.6 1.2 -0.9
v -0.6 1.3 -0.9
v -0.5 0 -0.9
v -0.5 0.2 -0.9
v -0.5 0.3 -0.9
v -0.5 1.2 -0.9
v -0.4 0.3 -0.9
v -0.4 1.2 -0.9
v 0.5 0.3 -0.9
v 0.5 1.2 -0.9
v 0.6 0 -0.9
v 0.6 0.2 -0.9
v 0.6 0.3 -0.9
v 0.6 1.2 -0.9
v 0.6 1.3 -0.9
v 0.6 1.4 -0.9
v 0.7 0 -0.9
v 0.7 1.2 -0.9
v 0.7 1.3 -0.9
v 0.7 1.4 -0.9
v 0.8 1.2 -0.9
v 0.8 1.3 -0.9
v -0.7 1.3 -1
v -0.7 1.5 -1
v -0.6 1.3 -1
v -0.6 1.4 -1
v 0.8 1.4 -1
v 0.8 1.5 -1
v -0.6 0 0.9
v -0.5 0 0.9
v 0.6 0 0.9
v 0.7 0 0.9
v -0.6 0 0.8
v -0.5 0 0.8
v 0.6 0 0.8
v 0.7 0 0.8
v -0.5 0 0.7
v -0.4 0 0.7
v -0.5 0 0.6
v -0.4 0 0.6
v -0.5 0 -0.6
v -0.4 0 -0.6
v -0.5 0 -0.7
v -0.4 0 -0.7
v -0.6 0 -0.8
v -0.5 0 -0.8
v 0.6 0 -0.8
v 0.7 0 -0.8
v -0.6 0 -0.9
v -0.5 0 -0.9
v 0.6 0 -0.9
v 0.7 0 -0.9
v -0.4 0.1 0.7
v -0.3 0.1 0.7
v -0.4 0.1 0.6
v -0.3 0.1 0.6
v -0.4 0.1 -0.6
v -0.3 0.1 -0.6
v -0.4 0.1 -0.7
v -0.3 0.1 -0.7
v -0.5 0.2 0.9
v 0.6 0.2 0.9
v -0.6 0.2 0.8
v -0.5 0.2 0.8
v 0.6 0.2 0.8
v -0.5 0.2 0.7
v -0.3 0.2 0.7
v -0.2 0.2 0.7
v -0.5 0.2 0.6
v -0.3 0.2 0.6
v -0.2 0.2 0.6
v -0.5 0.2 -0.6
v -0.3 0.2 -0.6
v -0.2 0.2 -0.6
v -0.5 0.2 -0.7
v -0.3 0.2 -0.7
v -0.2 0.2 -0.7
v -0.6 0.2 -0.8
v -0.5 0.2 -0.8
v 0.6 0.2 -0.8
v -0.5 0.2 -0.9
v 0.6 0.2 -0.9
v -0.5 0.3 0.7
v -0.4 0.3 0.7
v -0.2 0.3 0.7
v -0.1 0.3 0.7
v -0.4 0.3 0.6
v -0.2 0.3 0.6
v -0.4 0.3 -0.6
v -0.2 0.3 -0.6
v -0.5 0.3 -0.7
v -0.4 0.3 -0.7
v -0.2 0.3 -0.7
v -0.1 0.3 -0.7
v -0.5 0.6 0.6
v -0.4 0.6 0.6
v -0.5 0.6 -0.6
v -0.4 0.6 -0.6
v -0.7 1.2 0.9
v -0.6 1.2 0.9
v -0.5 1.2 0.9
v -0.4 1.2 0.9
v 0.5 1.2 0.9
v 0.6 1.2 0.9
v 0.7 1.2 0.9
v 0.8 1.2 0.9
v -0.7 1.2 0.8
v -0.6 1.2 0.8
v -0.5 1.2 0.8
v -0.4 1.2 0.8
v 0.5 1.2 0.8
v 0.6 1.2 0.8
v 0.7 1.2 0.8
v 0.8 1.2 0.8
v -0.6 1.2 0.7
v -0.5 1.2 0.7
v -0.6 1.2 -0.7
v -0.5 1.2 -0.7
v -0.7 1.2 -0.8
v -0.6 1.2 -0.8
v -0.5 1.2 -0.8
v -0.4 1.2 -0.8
v 0.5 1.2 -0.8
v 0.6 1.2 -0.8
v 0.7 1.2 -0.8
v 0.8 1.2 -0.8
v -0.7 1.2 -0.9
v -0.6 1.2 -0.9
v -0.5 1.2 -0.9
v -0.4 1.2 -0.9
v 0.5 1.2 -0.9
v 0.6 1.2 -0.9
v 0.7 1.2 -0.9
v 0.8 1.2 -0.9
v -0.7 1.3 1
v -0.6 1.3 1
v -0.7 1.3 0.9
v -0.6 1.3 0.9
v -0.7 1.3 0.8
v -0.6 1.3 0.8
v -0.7 1.3 -0.8
v -0.6 1.3 -0.8
v -0.7 1.3 -0.9
v -0.6 1.3 -0.9
v -0.7 1.3 -1
v -0.6 1.3 -1
v -0.6 1.4 1
v 0.8 1.4 1
v 0.6 1.4 0.9
v 0.7 1.4 0.9
v 0.6 1.4 0.8
v 0.7 1.4 0.8
v 0.6 1.4 -0.8
v 0.7 1.4 -0.8
v 0.6 1.4 -0.9
v 0.7 1.4 -0.9
v -0.6 1.4 -1
v 0.8 1.4 -1
v -0.5 0.2 0.7
v -0.4 0.2 0.7
v -0.5 0.2 0.6
v -0.4 0.2 0.6
v -0.5 0.2 -0.6
v -0.4 0.2 -0.6
v -0.5 0.2 -0.7
v -0.4 0.2 -0.7
v -0.5 0.3 0.9
v -0.4 0.3 0.9
v 0.5 0.3 0.9
v 0.6 0.3 0.9
v -0.6 0.3 0.8
v -0.5 0.3 0.8
v -0.4 0.3 0.8
v 0.5 0.3 0.8
v 0.6 0.3 0.8
v -0.6 0.3 0.7
v -0.5 0.3 0.7
v -0.6 0.3 -0.7
v -0.5 0.3 -0.7
v -0.6 0.3 -0.8
v -0.5 0.3 -0.8
v -0.4 0.3 -0.8
v 0.5 0.3 -0.8
v 0.6 0.3 -0.8
v -0.5 0.3 -0.9
v -0.4 0.3 -0.9
v 0.5 0.3 -0.9
v 0.6 0.3 -0.9
v -0.4 0.4 0.7
v -0.1 0.4 0.7
v -0.4 0.4 -0.7
v -0.1 0.4 -0.7
v -0.5 0.5 0.6
v -0.4 0.5 0.6
v -0.5 0.5 -0.6
v -0.4 0.5 -0.6
v -0.5 0.7 0.7
v -0.4 0.7 0.7
v -0.5 0.7 -0.7
v -0.4 0.7 -0.7
v -0.6 1.3 0.9
v 0.6 1.3 0.9
v 0.7 1.3 0.9
v 0.8 1.3 0.9
v -0.5 1.3 0.8
v 0.6 1.3 0.8
v 0.7 1.3 0.8
v 0.8 1.3 0.8
v -0.5 1.3 -0.8
v 0.6 1.3 -0.8
v 0.7 1.3 -0.8
v 0.8 1.3 -0.8
v -0.6 1.3 -0.9
v 0.6 1.3 -0.9
v 0.7 1.3 -0.9
v 0.8 1.3 -0.9
v -0.7 1.5 1
v 0.8 1.5 1
v -0.7 1.5 -1
v 0.8 1.5 -1

# faces
f 6/3/1 2/3/1 1/3/1
f 7/3/1 2/3/1 6/3/1
f 8/3/1 4/3/1 3/3/1
f 9/3/1 4/3/1 8/3/1
f 11/3/1 7/3/1 6/3/1
f 11/3/1 10/3/1 9/3/1
f 11/3/1 9/3/1 8/3/1
f 11/3/1 8/3/1 7/3/1
f 11/3/1 6/3/1 5/3/1
f 12/3/1 10/3/1 11/3/1
f 17/3/1 14/3/1 13/3/1
f 18/3/1 16/3/1 15/3/1
f 19/3/1 17/3/1 13/3/1
f 19/3/1 18/3/1 17/3/1
f 20/3/1 18/3/1 19/3/1
f 21/3/1 18/3/1 20/3/1
f 22/3/1 16/3/1 18/3/1
f 22/3/1 18/3/1 21/3/1
f 23/3/1 19/3/1 13/3/1
f 24/3/1 19/3/1 23/3/1
f 25/2/1 21/2/1 20/2/1
f 26/2/1 21/2/1 25/2/1
f 27/3/1 16/3/1 22/3/1
f 28/3/1 16/3/1 27/3/1
f 29/3/1 26/3/1 25/3/1
f 29/3/1 27/3/1 26/3/1
f 29/3/1 25/3/1 24/3/1
f 30/3/1 27/3/1 29/3/1
f 35/3/1 32/3/1 31/3/1
f 36/3/1 32/3/1 35/3/1
f 37/3/1 34/3/1 33/3/1
f 38/3/1 34/3/1 37/3/1
f 45/3/1 40/3/1 39/3/1
f 46/3/1 40/3/1 45/3/1
f 47/3/1 42/3/1 41/3/1
f 48/3/1 42/3/1 47/3/1
f 51/2/1 44/2/1 43/2/1
f 52/2/1 44/2/1 51/2/1
f 53/2/1 50/2/1 49/2/1
f 54/2/1 50/2/1 53/2/1
f 59/3/1 56/3/1 55/3/1
f 60/3/1 56/3/1 59/3/1
f 61/3/1 58/3/1 57/3/1
f 62/3/1 58/3/1 61/3/1
f 67/3/1 64/3/1 63/3/1
f 68/3/1 64/3/1 67/3/1
f 69/3/1 66/3/1 65/3/1
f 70/3/1 66/3/1 69/3/1
f 75/3/1 72/3/1 71/3/1
f 76/3/1 72/3/1 75/3/1
f 77/3/1 74/3/1 73/3/1
f 78/3/1 74/3/1 77/3/1
f 79/3/2 80/3/2 83/3/2
f 81/3/2 82/3/2 83/3/2
f 80/3/2 81/3/2 83/3/2
f 83/3/2 82/3/2 84/3/2
f 85/3/2 86/3/2 89/3/2
f 89/3/2 86/3/2 90/3/2
f 87/3/2 88/3/2 95/3/2
f 95/3/2 88/3/2 96/3/2
f 93/3/2 94/3/2 98/3/2
f 94/3/2 95/3/2 98/3/2
f 90/3/2 91/3/2 98/3/2
f 92/3/2 93/3/2 98/3/2
f 91/3/2 92/3/2 98/3/2
f 98/3/2 95/3/2 99/3/2
f 99/3/2 95/3/2 100/3/2
f 100/3/2 95/3/2 101/3/2
f 103/2/2 104/2/2 105/2/2
f 105/2/2 104/2/2 106/2/2
f 97/3/2 98/3/2 109/3/2
f 109/3/2 98/3/2 110/3/2
f 107/2/2 108/2/2 111/2/2
f 111/2/2 108/2/2 112/2/2
f 101/3/2 102/3/2 113/3/2
f 113/3/2 102/3/2 114/3/2
f 111/3/2 112/3/2 115/3/2
f 112/3/2 113/3/2 115/3/2
f 110/3/2 111/3/2 115/3/2
f 115/3/2 113/3/2 116/3/2
f 117/3/2 118/3/2 121/3/2
f 121/3/2 118/3/2 122/3/2
f 119/3/2 120/3/2 123/3/2
f 123/3/2 120/3/2 124/3/2
f 125/1/2 126/1/2 127/1/2
f 127/1/2 126/1/2 128/1/2
f 125/1/2 127/1/2 129/1/2
f 128/1/2 126/1/2 130/1/2
f 125/1/2 129/1/2 131/1/2
f 129/1/2 130/1/2 131/1/2
f 130/1/2 126/1/2 132/1/2
f 131/1/2 130/1/2 132/1/2
f 133/3/2 134/3/2 137/3/2
f 137/3/2 134/3/2 138/3/2
f 135/3/2 136/3/2 139/3/2
f 139/3/2 136/3/2 140/3/2
f 141/3/2 142/3/2 145/3/2
f 145/3/2 142/3/2 146/3/2
f 143/3/2 144/3/2 147/3/2
f 147/3/2 144/3/2 148/3/2
f 149/1/2 150/1/2 151/1/2
f 151/1/2 150/1/2 152/1/2
f 153/2/2 154/2/2 157/2/2
f 157/2/2 154/2/2 158/2/2
f 155/2/2 156/2/2 159/2/2
f 159/2/2 156/2/2 160/2/2
f 161/3/2 162/3/2 165/3/2
f 165/3/2 162/3/2 166/3/2
f 163/3/2 164/3/2 167/3/2
f 167/3/2 164/3/2 168/3/2
f 169/3/2 170/3/2 173/3/2
f 173/3/2 170/3/2 174/3/2
f 171/3/2 172/3/2 175/3/2
f 175/3/2 172/3/2 176/3/2
f 177/3/2 178/3/2 181/3/2
f 181/3/2 178/3/2 182/3/2
f 179/3/2 180/3/2 183/3/2
f 183/3/2 180/3/2 184/3/2
f 185/3/2 186/3/2 187/3/2
f 187/3/2 186/3/2 188/3/2
f 191/3/3 190/3/3 189/3/3
f 192/3/3 190/3/3 191/3/3
f 193/3/3 190/3/3 192/3/3
f 194/3/3 190/3/3 193/3/3
f 198/3/3 196/3/3 195/3/3
f 199/3/3 196/3/3 198/3/3
f 200/3/3 198/3/3 197/3/3
f 200/3/3 199/3/3 198/3/3
f 201/3/3 199/3/3 200/3/3
f 202/3/3 199/3/3 201/3/3
f 203/3/3 199/3/3 202/3/3
f 204/3/3 202/3/3 201/3/3
f 205/3/3 199/3/3 203/3/3
f 206/3/3 204/3/3 201/3/3
f 206/2/3 205/2/3 204/2/3
f 207/3/3 199/3/3 205/3/3
f 207/2/3 205/2/3 206/2/3
f 209/3/3 206/3/3 201/3/3
f 210/3/3 206/3/3 209/3/3
f 211/3/3 199/3/3 207/3/3
f 212/3/3 199/3/3 211/3/3
f 214/3/3 212/3/3 211/3/3
f 214/3/3 213/3/3 212/3/3
f 214/3/3 211/3/3 210/3/3
f 214/3/3 210/3/3 209/3/3
f 214/3/3 209/3/3 208/3/3
f 215/3/3 213/3/3 214/3/3
f 216/3/3 213/3/3 215/3/3
f 217/3/3 213/3/3 216/3/3
f 218/3/3 216/3/3 215/3/3
f 219/3/3 216/3/3 218/3/3
f 224/2/3 221/2/3 220/2/3
f 225/2/3 221/2/3 224/2/3
f 226/2/3 221/2/3 225/2/3
f 227/3/3 223/3/3 222/3/3
f 228/3/3 223/3/3 227/3/3
f 229/3/3 223/3/3 228/3/3
f 230/1/3 225/1/3 224/1/3
f 231/1/3 225/1/3 230/1/3
f 232/1/3 225/1/3 231/1/3
f 233/3/3 229/3/3 228/3/3
f 233/3/3 230/3/3 229/3/3
f 234/3/3 230/3/3 233/3/3
f 235/3/3 230/3/3 234/3/3
f 236/1/3 231/1/3 230/1/3
f 236/3/3 230/3/3 235/3/3
f 237/1/3 231/1/3 236/1/3
f 238/1/3 231/1/3 237/1/3
f 243/3/3 240/3/3 239/3/3
f 244/3/3 240/3/3 243/3/3
f 245/3/3 240/3/3 244/3/3
f 247/1/3 242/1/3 241/1/3
f 248/1/3 242/1/3 247/1/3
f 249/3/3 246/3/3 245/3/3
f 249/3/3 245/3/3 244/3/3
f 250/3/3 246/3/3 249/3/3
f 251/3/3 246/3/3 250/3/3
f 252/3/3 246/3/3 251/3/3
f 258/3/3 254/3/3 253/3/3
f 259/3/3 254/3/3 258/3/3
f 260/3/3 256/3/3 255/3/3
f 261/3/3 256/3/3 260/3/3
f 262/3/3 258/3/3 257/3/3
f 263/3/3 258/3/3 262/3/3
f 265/3/3 262/3/3 261/3/3
f 266/3/3 264/3/3 263/3/3
f 267/3/3 265/3/3 261/3/3
f 267/2/3 266/2/3 265/2/3
f 268/3/3 264/3/3 266/3/3
f 268/2/3 266/2/3 267/2/3
f 270/3/3 267/3/3 261/3/3
f 271/3/3 267/3/3 270/3/3
f 272/3/3 264/3/3 268/3/3
f 273/3/3 264/3/3 272/3/3
f 275/3/3 273/3/3 272/3/3
f 275/3/3 274/3/3 273/3/3
f 275/3/3 272/3/3 271/3/3
f 275/3/3 271/3/3 270/3/3
f 275/3/3 270/3/3 269/3/3
f 276/3/3 274/3/3 275/3/3
f 277/3/3 274/3/3 276/3/3
f 278/3/3 274/3/3 277/3/3
f 279/3/3 277/3/3 276/3/3
f 280/3/3 277/3/3 279/3/3
f 281/3/4 282/3/4 286/3/4
f 286/3/4 282/3/4 287/3/4
f 283/3/4 284/3/4 288/3/4
f 288/3/4 284/3/4 289/3/4
f 285/3/4 286/3/4 290/3/4
f 290/3/4 286/3/4 291/3/4
f 289/3/4 290/3/4 293/3/4
f 291/3/4 292/3/4 294/3/4
f 289/3/4 293/3/4 295/3/4
f 293/2/4 294/2/4 295/2/4
f 294/3/4 292/3/4 296/3/4
f 295/2/4 294/2/4 296/2/4
f 289/3/4 295/3/4 298/3/4
f 298/3/4 295/3/4 299/3/4
f 296/3/4 292/3/4 300/3/4
f 300/3/4 292/3/4 301/3/4
f 300/3/4 301/3/4 303/3/4
f 301/3/4 302/3/4 303/3/4
f 299/3/4 300/3/4 303/3/4
f 298/3/4 299/3/4 303/3/4
f 297/3/4 298/3/4 303/3/4
f 303/3/4 302/3/4 304/3/4
f 304/3/4 302/3/4 305/3/4
f 305/3/4 302/3/4 306/3/4
f 304/3/4 305/3/4 307/3/4
f 307/3/4 305/3/4 308/3/4
f 309/3/4 310/3/4 313/3/4
f 313/3/4 310/3/4 314/3/4
f 314/3/4 310/3/4 315/3/4
f 311/1/4 312/1/4 317/1/4
f 317/1/4 312/1/4 318/1/4
f 315/3/4 316/3/4 319/3/4
f 314/3/4 315/3/4 319/3/4
f 319/3/4 316/3/4 320/3/4
f 320/3/4 316/3/4 321/3/4
f 321/3/4 316/3/4 322/3/4
f 323/2/4 324/2/4 327/2/4
f 327/2/4 324/2/4 328/2/4
f 328/2/4 324/2/4 329/2/4
f 325/3/4 326/3/4 330/3/4
f 330/3/4 326/3/4 331/3/4
f 331/3/4 326/3/4 332/3/4
f 327/1/4 328/1/4 333/1/4
f 333/1/4 328/1/4 334/1/4
f 334/1/4 328/1/4 335/1/4
f 331/3/4 332/3/4 336/3/4
f 332/3/4 333/3/4 336/3/4
f 336/3/4 333/3/4 337/3/4
f 337/3/4 333/3/4 338/3/4
f 333/1/4 334/1/4 339/1/4
f 338/3/4 333/3/4 339/3/4
f 339/1/4 334/1/4 340/1/4
f 340/1/4 334/1/4 341/1/4
f 342/3/4 343/3/4 345/3/4
f 345/3/4 343/3/4 346/3/4
f 344/3/4 345/3/4 347/3/4
f 345/3/4 346/3/4 347/3/4
f 347/3/4 346/3/4 348/3/4
f 348/3/4 346/3/4 349/3/4
f 349/3/4 346/3/4 350/3/4
f 348/3/4 349/3/4 351/3/4
f 350/3/4 346/3/4 352/3/4
f 348/3/4 351/3/4 353/3/4
f 351/2/4 352/2/4 353/2/4
f 352/3/4 346/3/4 354/3/4
f 353/2/4 352/2/4 354/2/4
f 348/3/4 353/3/4 356/3/4
f 356/3/4 353/3/4 357/3/4
f 354/3/4 346/3/4 358/3/4
f 358/3/4 346/3/4 359/3/4
f 358/3/4 359/3/4 361/3/4
f 359/3/4 360/3/4 361/3/4
f 357/3/4 358/3/4 361/3/4
f 356/3/4 357/3/4 361/3/4
f 355/3/4 356/3/4 361/3/4
f 361/3/4 360/3/4 362/3/4
f 362/3/4 360/3/4 363/3/4
f 363/3/4 360/3/4 364/3/4
f 362/3/4 363/3/4 365/3/4
f 365/3/4 363/3/4 366/3/4
f 367/3/4 368/3/4 369/3/4
f 369/3/4 368/3/4 370/3/4
f 370/3/4 368/3/4 371/3/4
f 371/3/4 368/3/4 372/3/4
f 377/3/5 374/3/5 373/3/5
f 378/3/5 374/3/5 377/3/5
f 379/3/5 376/3/5 375/3/5
f 380/3/5 376/3/5 379/3/5
f 383/3/5 382/3/5 381/3/5
f 384/3/5 382/3/5 383/3/5
f 387/3/5 386/3/5 385/3/5
f 388/3/5 386/3/5 387/3/5
f 393/3/5 390/3/5 389/3/5
f 394/3/5 390/3/5 393/3/5
f 395/3/5 392/3/5 391/3/5
f 396/3/5 392/3/5 395/3/5
f 399/3/5 398/3/5 397/3/5
f 400/3/5 398/3/5 399/3/5
f 403/3/5 402/3/5 401/3/5
f 404/3/5 402/3/5 403/3/5
f 408/3/5 406/3/5 405/3/5
f 409/3/5 406/3/5 408/3/5
f 410/3/5 408/3/5 407/3/5
f 413/3/5 410/3/5 407/3/5
f 414/3/5 412/3/5 411/3/5
f 415/3/5 412/3/5 414/3/5
f 416/3/5 413/3/5 407/3/5
f 419/3/5 416/3/5 407/3/5
f 420/3/5 418/3/5 417/3/5
f 421/3/5 418/3/5 420/3/5
f 422/3/5 419/3/5 407/3/5
f 423/3/5 419/3/5 422/3/5
f 425/3/5 424/3/5 423/3/5
f 426/3/5 424/3/5 425/3/5
f 431/1/5 428/1/5 427/1/5
f 432/1/5 430/1/5 429/1/5
f 433/1/5 431/1/5 427/1/5
f 433/1/5 432/1/5 431/1/5
f 434/1/5 430/1/5 432/1/5
f 434/1/5 432/1/5 433/1/5
f 435/1/5 433/1/5 427/1/5
f 436/1/5 433/1/5 435/1/5
f 437/1/5 430/1/5 434/1/5
f 438/1/5 430/1/5 437/1/5
f 441/1/5 440/1/5 439/1/5
f 442/1/5 440/1/5 441/1/5
f 451/3/5 444/3/5 443/3/5
f 452/3/5 444/3/5 451/3/5
f 453/3/5 446/3/5 445/3/5
f 454/3/5 446/3/5 453/3/5
f 455/3/5 448/3/5 447/3/5
f 456/3/5 448/3/5 455/3/5
f 457/3/5 450/3/5 449/3/5
f 458/3/5 450/3/5 457/3/5
f 459/3/5 453/3/5 452/3/5
f 460/3/5 453/3/5 459/3/5
f 464/3/5 462/3/5 461/3/5
f 465/3/5 462/3/5 464/3/5
f 471/3/5 464/3/5 463/3/5
f 472/3/5 464/3/5 471/3/5
f 473/3/5 466/3/5 465/3/5
f 474/3/5 466/3/5 473/3/5
f 475/3/5 468/3/5 467/3/5
f 476/3/5 468/3/5 475/3/5
f 477/3/5 470/3/5 469/3/5
f 478/3/5 470/3/5 477/3/5
f 481/3/5 480/3/5 479/3/5
f 482/3/5 480/3/5 481/3/5
f 485/3/5 484/3/5 483/3/5
f 486/3/5 484/3/5 485/3/5
f 489/3/5 488/3/5 487/3/5
f 490/3/5 488/3/5 489/3/5
f 493/3/5 492/3/5 491/3/5
f 494/3/5 492/3/5 493/3/5
f 495/3/5 493/3/5 491/3/5
f 496/3/5 492/3/5 494/3/5
f 497/3/5 495/3/5 491/3/5
f 497/3/5 496/3/5 495/3/5
f 498/3/5 492/3/5 496/3/5
f 498/3/5 496/3/5 497/3/5
f 499/3/5 497/3/5 491/3/5
f 500/3/5 492/3/5 498/3/5
f 501/3/5 499/3/5 491/3/5
f 501/3/5 500/3/5 499/3/5
f 502/3/5 492/3/5 500/3/5
f 502/3/5 500/3/5 501/3/5
f 503/3/6 504/3/6 505/3/6
f 505/3/6 504/3/6 506/3/6
f 507/3/6 508/3/6 509/3/6
f 509/3/6 508/3/6 510/3/6
f 511/3/6 512/3/6 516/3/6
f 516/3/6 512/3/6 517/3/6
f 513/3/6 514/3/6 518/3/6
f 518/3/6 514/3/6 519/3/6
f 515/3/6 516/3/6 520/3/6
f 520/3/6 516/3/6 521/3/6
f 522/3/6 523/3/6 524/3/6
f 524/3/6 523/3/6 525/3/6
f 525/3/6 526/3/6 529/3/6
f 529/3/6 526/3/6 530/3/6
f 527/3/6 528/3/6 531/3/6
f 531/3/6 528/3/6 532/3/6
f 533/1/6 534/1/6 535/1/6
f 535/1/6 534/1/6 536/1/6
f 537/1/6 538/1/6 539/1/6
f 539/1/6 538/1/6 540/1/6
f 541/1/6 542/1/6 543/1/6
f 543/1/6 542/1/6 544/1/6
f 545/3/6 546/3/6 549/3/6
f 549/3/6 546/3/6 550/3/6
f 547/3/6 548/3/6 551/3/6
f 551/3/6 548/3/6 552/3/6
f 545/3/6 549/3/6 553/3/6
f 545/3/6 553/3/6 557/3/6
f 553/3/6 554/3/6 557/3/6
f 557/3/6 554/3/6 558/3/6
f 555/3/6 556/3/6 559/3/6
f 559/3/6 556/3/6 560/3/6
f 561/3/6 562/3/6 563/3/6
f 563/3/6 562/3/6 564/3/6
