# MagicaVoxel @ Ephtracy

# group
o 

# material
mtllib car_1.mtl
usemtl palette

# normals
vn -1 0 0
vn 1 0 0
vn 0 0 1
vn 0 0 -1
vn 0 -1 0
vn 0 1 0

# texcoords
vt 0.0214844 0.5
vt 0.115234 0.5
vt 0.599609 0.5
vt 0.779297 0.5
vt 0.958984 0.5
vt 0.986328 0.5

# verts
v -0.2 0 0.5
v -0.2 0 0.3
v -0.2 0 -0.2
v -0.2 0 -0.4
v -0.2 0.1 0.6
v -0.2 0.1 0.5
v -0.2 0.1 0.3
v -0.2 0.1 -0.2
v -0.2 0.1 -0.4
v -0.2 0.1 -0.5
v -0.2 0.1 -0.6
v -0.2 0.2 0.6
v -0.2 0.2 0.5
v -0.2 0.2 0.3
v -0.2 0.2 -0.2
v -0.2 0.2 -0.4
v -0.2 0.2 -0.5
v -0.2 0.2 -0.6
v -0.2 0.3 0.6
v -0.2 0.3 0.5
v -0.2 0.3 0.4
v -0.2 0.3 0.2
v -0.2 0.3 5.96046e-008
v -0.2 0.3 -0.2
v -0.2 0.3 -0.4
v -0.2 0.3 -0.5
v -0.2 0.3 -0.6
v -0.2 0.5 0.4
v -0.2 0.5 0.2
v -0.2 0.5 5.96046e-008
v -0.2 0.5 -0.2
v -0.2 0.5 -0.4
v 0.1 0 0.4
v 0.1 0 0.3
v 0.1 0.1 0.4
v 0.1 0.1 0.3
v 0.2 0 0.5
v 0.2 0 0.4
v 0.2 0 -0.2
v 0.2 0 -0.4
v 0.2 0.1 0.5
v 0.2 0.1 0.4
v 0.2 0.1 -0.2
v 0.2 0.1 -0.4
v -0.1 0 0.5
v -0.1 0 0.3
v -0.1 0 -0.2
v -0.1 0 -0.4
v -0.1 0.1 0.5
v -0.1 0.1 0.3
v -0.1 0.1 -0.2
v -0.1 0.1 -0.4
v 0.3 0 0.5
v 0.3 0 0.3
v 0.3 0 -0.2
v 0.3 0 -0.4
v 0.3 0.1 0.6
v 0.3 0.1 0.5
v 0.3 0.1 0.3
v 0.3 0.1 -0.2
v 0.3 0.1 -0.4
v 0.3 0.1 -0.5
v 0.3 0.1 -0.6
v 0.3 0.2 0.6
v 0.3 0.2 0.5
v 0.3 0.2 0.3
v 0.3 0.2 -0.2
v 0.3 0.2 -0.4
v 0.3 0.2 -0.5
v 0.3 0.2 -0.6
v 0.3 0.3 0.6
v 0.3 0.3 0.5
v 0.3 0.3 0.4
v 0.3 0.3 0.2
v 0.3 0.3 5.96046e-008
v 0.3 0.3 -0.2
v 0.3 0.3 -0.4
v 0.3 0.3 -0.5
v 0.3 0.3 -0.6
v 0.3 0.5 0.4
v 0.3 0.5 0.2
v 0.3 0.5 5.96046e-008
v 0.3 0.5 -0.2
v 0.3 0.5 -0.4
v -0.2 0.1 0.6
v -0.2 0.2 0.6
v -0.2 0.3 0.6
v -0.1 0.2 0.6
v -0.1 0.3 0.6
v 0.2 0.2 0.6
v 0.2 0.3 0.6
v 0.3 0.1 0.6
v 0.3 0.2 0.6
v 0.3 0.3 0.6
v -0.2 0 0.5
v -0.2 0.1 0.5
v -0.1 0 0.5
v -0.1 0.1 0.5
v 0.2 0 0.5
v 0.2 0.1 0.5
v 0.3 0 0.5
v 0.3 0.1 0.5
v -0.2 0.3 0.4
v -0.2 0.5 0.4
v 0.1 0 0.4
v 0.1 0.1 0.4
v 0.2 0 0.4
v 0.2 0.1 0.4
v 0.3 0.3 0.4
v 0.3 0.5 0.4
v -0.2 0 -0.2
v -0.2 0.1 -0.2
v -0.1 0 -0.2
v -0.1 0.1 -0.2
v 0.2 0 -0.2
v 0.2 0.1 -0.2
v 0.3 0 -0.2
v 0.3 0.1 -0.2
v -0.2 0 0.3
v -0.2 0.1 0.3
v -0.1 0 0.3
v -0.1 0.1 0.3
v 0.1 0 0.3
v 0.1 0.1 0.3
v 0.3 0 0.3
v 0.3 0.1 0.3
v -0.2 0 -0.4
v -0.2 0.1 -0.4
v -0.2 0.3 -0.4
v -0.2 0.5 -0.4
v -0.1 0 -0.4
v -0.1 0.1 -0.4
v 0.2 0 -0.4
v 0.2 0.1 -0.4
v 0.3 0 -0.4
v 0.3 0.1 -0.4
v 0.3 0.3 -0.4
v 0.3 0.5 -0.4
v -0.2 0.1 -0.6
v -0.2 0.2 -0.6
v -0.2 0.3 -0.6
v -0.1 0.1 -0.6
v -0.1 0.2 -0.6
v -0.1 0.3 -0.6
v 0.2 0.1 -0.6
v 0.2 0.2 -0.6
v 0.2 0.3 -0.6
v 0.3 0.1 -0.6
v 0.3 0.2 -0.6
v 0.3 0.3 -0.6
v -0.2 0 0.5
v -0.1 0 0.5
v 0.2 0 0.5
v 0.3 0 0.5
v 0.1 0 0.4
v 0.2 0 0.4
v -0.2 0 0.3
v -0.1 0 0.3
v 0.1 0 0.3
v 0.3 0 0.3
v -0.2 0 -0.2
v -0.1 0 -0.2
v 0.2 0 -0.2
v 0.3 0 -0.2
v -0.2 0 -0.4
v -0.1 0 -0.4
v 0.2 0 -0.4
v 0.3 0 -0.4
v -0.2 0.1 0.6
v 0.3 0.1 0.6
v -0.2 0.1 0.5
v -0.1 0.1 0.5
v 0.2 0.1 0.5
v 0.3 0.1 0.5
v 0.1 0.1 0.4
v 0.2 0.1 0.4
v -0.2 0.1 0.3
v -0.1 0.1 0.3
v 0.1 0.1 0.3
v 0.3 0.1 0.3
v -0.2 0.1 -0.2
v -0.1 0.1 -0.2
v 0.2 0.1 -0.2
v 0.3 0.1 -0.2
v -0.2 0.1 -0.4
v -0.1 0.1 -0.4
v 0.2 0.1 -0.4
v 0.3 0.1 -0.4
v -0.2 0.1 -0.5
v -0.1 0.1 -0.5
v 0.2 0.1 -0.5
v 0.3 0.1 -0.5
v -0.2 0.1 -0.6
v -0.1 0.1 -0.6
v 0.2 0.1 -0.6
v 0.3 0.1 -0.6
v -0.2 0.3 0.6
v -0.1 0.3 0.6
v 0.2 0.3 0.6
v 0.3 0.3 0.6
v -0.2 0.3 0.5
v -0.1 0.3 0.5
v 0.2 0.3 0.5
v 0.3 0.3 0.5
v -0.2 0.3 0.4
v 0.3 0.3 0.4
v -0.2 0.3 -0.4
v 0.3 0.3 -0.4
v -0.2 0.3 -0.5
v -0.1 0.3 -0.5
v 0.2 0.3 -0.5
v 0.3 0.3 -0.5
v -0.2 0.3 -0.6
v -0.1 0.3 -0.6
v 0.2 0.3 -0.6
v 0.3 0.3 -0.6
v -0.2 0.5 0.4
v 0.3 0.5 0.4
v -0.1 0.5 0.3
v 0.2 0.5 0.3
v -0.2 0.5 0.2
v -0.1 0.5 0.2
v 0.2 0.5 0.2
v 0.3 0.5 0.2
v -0.2 0.5 5.96046e-008
v -0.1 0.5 5.96046e-008
v 0.2 0.5 5.96046e-008
v 0.3 0.5 5.96046e-008
v -0.2 0.5 -0.2
v -0.1 0.5 -0.2
v 0.2 0.5 -0.2
v 0.3 0.5 -0.2
v -0.2 0.5 -0.4
v 0.3 0.5 -0.4

# faces
f 6/6/1 2/6/1 1/6/1
f 7/6/1 2/6/1 6/6/1
f 8/6/1 4/6/1 3/6/1
f 9/6/1 4/6/1 8/6/1
f 12/3/1 6/3/1 5/3/1
f 13/6/1 7/6/1 6/6/1
f 13/3/1 6/3/1 12/3/1
f 14/3/1 8/3/1 7/3/1
f 14/6/1 7/6/1 13/6/1
f 15/6/1 9/6/1 8/6/1
f 15/3/1 8/3/1 14/3/1
f 16/3/1 10/3/1 9/3/1
f 16/6/1 9/6/1 15/6/1
f 17/2/1 11/2/1 10/2/1
f 17/3/1 10/3/1 16/3/1
f 18/2/1 11/2/1 17/2/1
f 19/5/1 13/5/1 12/5/1
f 20/3/1 16/3/1 15/3/1
f 20/5/1 13/5/1 19/5/1
f 20/3/1 14/3/1 13/3/1
f 20/3/1 15/3/1 14/3/1
f 20/3/1 17/3/1 16/3/1
f 21/3/1 17/3/1 20/3/1
f 22/3/1 17/3/1 21/3/1
f 23/3/1 17/3/1 22/3/1
f 24/3/1 17/3/1 23/3/1
f 25/3/1 17/3/1 24/3/1
f 26/1/1 18/1/1 17/1/1
f 26/3/1 17/3/1 25/3/1
f 27/1/1 18/1/1 26/1/1
f 28/4/1 22/4/1 21/4/1
f 29/3/1 23/3/1 22/3/1
f 29/4/1 22/4/1 28/4/1
f 30/4/1 24/4/1 23/4/1
f 30/3/1 23/3/1 29/3/1
f 31/3/1 25/3/1 24/3/1
f 31/4/1 24/4/1 30/4/1
f 32/3/1 25/3/1 31/3/1
f 35/6/1 34/6/1 33/6/1
f 36/6/1 34/6/1 35/6/1
f 41/6/1 38/6/1 37/6/1
f 42/6/1 38/6/1 41/6/1
f 43/6/1 40/6/1 39/6/1
f 44/6/1 40/6/1 43/6/1
f 45/6/2 46/6/2 49/6/2
f 49/6/2 46/6/2 50/6/2
f 47/6/2 48/6/2 51/6/2
f 51/6/2 48/6/2 52/6/2
f 53/6/2 54/6/2 58/6/2
f 58/6/2 54/6/2 59/6/2
f 55/6/2 56/6/2 60/6/2
f 60/6/2 56/6/2 61/6/2
f 57/3/2 58/3/2 64/3/2
f 58/6/2 59/6/2 65/6/2
f 64/3/2 58/3/2 65/3/2
f 59/3/2 60/3/2 66/3/2
f 65/6/2 59/6/2 66/6/2
f 60/6/2 61/6/2 67/6/2
f 66/3/2 60/3/2 67/3/2
f 61/3/2 62/3/2 68/3/2
f 67/6/2 61/6/2 68/6/2
f 62/2/2 63/2/2 69/2/2
f 68/3/2 62/3/2 69/3/2
f 69/2/2 63/2/2 70/2/2
f 64/5/2 65/5/2 71/5/2
f 67/3/2 68/3/2 72/3/2
f 71/5/2 65/5/2 72/5/2
f 65/3/2 66/3/2 72/3/2
f 66/3/2 67/3/2 72/3/2
f 68/3/2 69/3/2 72/3/2
f 72/3/2 69/3/2 73/3/2
f 73/3/2 69/3/2 74/3/2
f 74/3/2 69/3/2 75/3/2
f 75/3/2 69/3/2 76/3/2
f 76/3/2 69/3/2 77/3/2
f 69/1/2 70/1/2 78/1/2
f 77/3/2 69/3/2 78/3/2
f 78/1/2 70/1/2 79/1/2
f 73/4/2 74/4/2 80/4/2
f 74/3/2 75/3/2 81/3/2
f 80/4/2 74/4/2 81/4/2
f 75/4/2 76/4/2 82/4/2
f 81/3/2 75/3/2 82/3/2
f 76/3/2 77/3/2 83/3/2
f 82/4/2 76/4/2 83/4/2
f 83/3/2 77/3/2 84/3/2
f 88/3/3 86/3/3 85/3/3
f 88/5/3 87/5/3 86/5/3
f 89/5/3 87/5/3 88/5/3
f 90/3/3 88/3/3 85/3/3
f 90/3/3 89/3/3 88/3/3
f 91/3/3 89/3/3 90/3/3
f 92/3/3 90/3/3 85/3/3
f 93/5/3 91/5/3 90/5/3
f 93/3/3 90/3/3 92/3/3
f 94/5/3 91/5/3 93/5/3
f 97/6/3 96/6/3 95/6/3
f 98/6/3 96/6/3 97/6/3
f 101/6/3 100/6/3 99/6/3
f 102/6/3 100/6/3 101/6/3
f 107/6/3 106/6/3 105/6/3
f 108/6/3 106/6/3 107/6/3
f 109/4/3 104/4/3 103/4/3
f 110/4/3 104/4/3 109/4/3
f 113/6/3 112/6/3 111/6/3
f 114/6/3 112/6/3 113/6/3
f 117/6/3 116/6/3 115/6/3
f 118/6/3 116/6/3 117/6/3
f 119/6/4 120/6/4 121/6/4
f 121/6/4 120/6/4 122/6/4
f 123/6/4 124/6/4 125/6/4
f 125/6/4 124/6/4 126/6/4
f 127/6/4 128/6/4 131/6/4
f 131/6/4 128/6/4 132/6/4
f 133/6/4 134/6/4 135/6/4
f 135/6/4 134/6/4 136/6/4
f 129/3/4 130/3/4 137/3/4
f 137/3/4 130/3/4 138/3/4
f 139/2/4 140/2/4 142/2/4
f 140/1/4 141/1/4 143/1/4
f 142/2/4 140/2/4 143/2/4
f 143/1/4 141/1/4 144/1/4
f 142/3/4 143/3/4 145/3/4
f 143/3/4 144/3/4 145/3/4
f 145/3/4 144/3/4 146/3/4
f 146/3/4 144/3/4 147/3/4
f 145/2/4 146/2/4 148/2/4
f 146/1/4 147/1/4 149/1/4
f 148/2/4 146/2/4 149/2/4
f 149/1/4 147/1/4 150/1/4
f 156/6/5 154/6/5 153/6/5
f 157/6/5 152/6/5 151/6/5
f 158/6/5 152/6/5 157/6/5
f 159/6/5 156/6/5 155/6/5
f 160/6/5 154/6/5 156/6/5
f 160/6/5 156/6/5 159/6/5
f 165/6/5 162/6/5 161/6/5
f 166/6/5 162/6/5 165/6/5
f 167/6/5 164/6/5 163/6/5
f 168/6/5 164/6/5 167/6/5
f 171/3/5 170/3/5 169/3/5
f 172/3/5 170/3/5 171/3/5
f 173/3/5 170/3/5 172/3/5
f 174/3/5 170/3/5 173/3/5
f 175/3/5 173/3/5 172/3/5
f 176/3/5 173/3/5 175/3/5
f 178/3/5 175/3/5 172/3/5
f 179/3/5 175/3/5 178/3/5
f 181/3/5 179/3/5 178/3/5
f 181/3/5 180/3/5 179/3/5
f 181/3/5 178/3/5 177/3/5
f 182/3/5 180/3/5 181/3/5
f 183/3/5 180/3/5 182/3/5
f 184/3/5 180/3/5 183/3/5
f 186/3/5 183/3/5 182/3/5
f 187/3/5 183/3/5 186/3/5
f 189/3/5 186/3/5 185/3/5
f 189/3/5 188/3/5 187/3/5
f 189/3/5 187/3/5 186/3/5
f 190/3/5 188/3/5 189/3/5
f 191/3/5 188/3/5 190/3/5
f 192/3/5 188/3/5 191/3/5
f 193/2/5 190/2/5 189/2/5
f 194/3/5 191/3/5 190/3/5
f 194/2/5 190/2/5 193/2/5
f 195/2/5 192/2/5 191/2/5
f 195/3/5 191/3/5 194/3/5
f 196/2/5 192/2/5 195/2/5
f 197/5/6 198/5/6 201/5/6
f 198/3/6 199/3/6 202/3/6
f 201/5/6 198/5/6 202/5/6
f 199/5/6 200/5/6 203/5/6
f 202/3/6 199/3/6 203/3/6
f 203/5/6 200/5/6 204/5/6
f 201/3/6 202/3/6 205/3/6
f 202/3/6 203/3/6 205/3/6
f 203/3/6 204/3/6 205/3/6
f 205/3/6 204/3/6 206/3/6
f 207/3/6 208/3/6 209/3/6
f 209/3/6 208/3/6 210/3/6
f 210/3/6 208/3/6 211/3/6
f 211/3/6 208/3/6 212/3/6
f 209/1/6 210/1/6 213/1/6
f 210/3/6 211/3/6 214/3/6
f 213/1/6 210/1/6 214/1/6
f 211/1/6 212/1/6 215/1/6
f 214/3/6 211/3/6 215/3/6
f 215/1/6 212/1/6 216/1/6
f 217/4/6 218/4/6 219/4/6
f 219/4/6 218/4/6 220/4/6
f 217/4/6 219/4/6 221/4/6
f 219/3/6 220/3/6 222/3/6
f 221/4/6 219/4/6 222/4/6
f 220/4/6 218/4/6 223/4/6
f 222/3/6 220/3/6 223/3/6
f 223/4/6 218/4/6 224/4/6
f 221/3/6 222/3/6 225/3/6
f 222/3/6 223/3/6 225/3/6
f 223/3/6 224/3/6 225/3/6
f 225/3/6 224/3/6 226/3/6
f 226/3/6 224/3/6 227/3/6
f 227/3/6 224/3/6 228/3/6
f 225/4/6 226/4/6 229/4/6
f 226/3/6 227/3/6 230/3/6
f 229/4/6 226/4/6 230/4/6
f 227/4/6 228/4/6 231/4/6
f 230/3/6 227/3/6 231/3/6
f 231/4/6 228/4/6 232/4/6
f 229/3/6 230/3/6 233/3/6
f 230/3/6 231/3/6 233/3/6
f 231/3/6 232/3/6 233/3/6
f 233/3/6 232/3/6 234/3/6
