# MagicaVoxel @ Ephtracy

# group
o 

# material
mtllib car_1.mtl
usemtl palette

# normals
vn -1 0 0
vn 1 0 0
vn 0 0 1
vn 0 0 -1
vn 0 -1 0
vn 0 1 0

# texcoords
vt 0.0214844 0.5
vt 0.115234 0.5
vt 0.599609 0.5
vt 0.779297 0.5
vt 0.958984 0.5
vt 0.986328 0.5

# verts
v -0.3 0 0.4
v -0.3 0 0.2
v -0.3 0 -0.2
v -0.3 0 -0.4
v -0.3 0.2 0.6
v -0.3 0.2 0.4
v -0.3 0.2 0.2
v -0.3 0.2 -0.2
v -0.3 0.2 -0.4
v -0.3 0.2 -0.5
v -0.3 0.2 -0.6
v -0.3 0.3 0.6
v -0.3 0.3 0.5
v -0.3 0.3 -0.5
v -0.3 0.3 -0.6
v -0.3 0.4 0.6
v -0.3 0.4 0.5
v -0.3 0.4 0.4
v -0.3 0.4 0.2
v -0.3 0.4 5.96046e-008
v -0.3 0.4 -0.2
v -0.3 0.4 -0.4
v -0.3 0.4 -0.5
v -0.3 0.4 -0.6
v -0.3 0.6 0.4
v -0.3 0.6 0.2
v -0.3 0.6 5.96046e-008
v -0.3 0.6 -0.2
v -0.3 0.7 0.4
v -0.3 0.7 -0.4
v 0.2 0 0.4
v 0.2 0 0.2
v 0.2 0 -0.2
v 0.2 0 -0.4
v 0.2 0.2 0.4
v 0.2 0.2 0.2
v 0.2 0.2 -0.2
v 0.2 0.2 -0.4
v -0.2 0 0.4
v -0.2 0 0.2
v -0.2 0 -0.2
v -0.2 0 -0.4
v -0.2 0.2 0.4
v -0.2 0.2 0.2
v -0.2 0.2 -0.2
v -0.2 0.2 -0.4
v 0.3 0 0.4
v 0.3 0 0.2
v 0.3 0 -0.2
v 0.3 0 -0.4
v 0.3 0.2 0.6
v 0.3 0.2 0.4
v 0.3 0.2 0.2
v 0.3 0.2 -0.2
v 0.3 0.2 -0.4
v 0.3 0.2 -0.5
v 0.3 0.2 -0.6
v 0.3 0.3 0.6
v 0.3 0.3 0.5
v 0.3 0.3 -0.5
v 0.3 0.3 -0.6
v 0.3 0.4 0.6
v 0.3 0.4 0.5
v 0.3 0.4 0.4
v 0.3 0.4 0.2
v 0.3 0.4 5.96046e-008
v 0.3 0.4 -0.2
v 0.3 0.4 -0.4
v 0.3 0.4 -0.5
v 0.3 0.4 -0.6
v 0.3 0.6 0.4
v 0.3 0.6 0.2
v 0.3 0.6 5.96046e-008
v 0.3 0.6 -0.2
v 0.3 0.7 0.4
v 0.3 0.7 -0.4
v -0.3 0.2 0.6
v -0.3 0.3 0.6
v -0.3 0.4 0.6
v -0.2 0.3 0.6
v -0.2 0.4 0.6
v 0.2 0.3 0.6
v 0.2 0.4 0.6
v 0.3 0.2 0.6
v 0.3 0.3 0.6
v 0.3 0.4 0.6
v -0.3 0 0.4
v -0.3 0.2 0.4
v -0.3 0.4 0.4
v -0.3 0.6 0.4
v -0.3 0.7 0.4
v -0.2 0 0.4
v -0.2 0.2 0.4
v 0.2 0 0.4
v 0.2 0.2 0.4
v 0.3 0 0.4
v 0.3 0.2 0.4
v 0.3 0.4 0.4
v 0.3 0.6 0.4
v 0.3 0.7 0.4
v -0.3 0 -0.2
v -0.3 0.2 -0.2
v -0.2 0 -0.2
v -0.2 0.2 -0.2
v 0.2 0 -0.2
v 0.2 0.2 -0.2
v 0.3 0 -0.2
v 0.3 0.2 -0.2
v -0.3 0 0.2
v -0.3 0.2 0.2
v -0.2 0 0.2
v -0.2 0.2 0.2
v 0.2 0 0.2
v 0.2 0.2 0.2
v 0.3 0 0.2
v 0.3 0.2 0.2
v -0.3 0 -0.4
v -0.3 0.2 -0.4
v -0.3 0.4 -0.4
v -0.3 0.7 -0.4
v -0.2 0 -0.4
v -0.2 0.2 -0.4
v -0.2 0.4 -0.4
v -0.2 0.6 -0.4
v 0.2 0 -0.4
v 0.2 0.2 -0.4
v 0.2 0.4 -0.4
v 0.2 0.6 -0.4
v 0.3 0 -0.4
v 0.3 0.2 -0.4
v 0.3 0.4 -0.4
v 0.3 0.7 -0.4
v -0.3 0.2 -0.6
v -0.3 0.3 -0.6
v -0.3 0.4 -0.6
v -0.2 0.2 -0.6
v -0.2 0.3 -0.6
v -0.2 0.4 -0.6
v 0.2 0.2 -0.6
v 0.2 0.3 -0.6
v 0.2 0.4 -0.6
v 0.3 0.2 -0.6
v 0.3 0.3 -0.6
v 0.3 0.4 -0.6
v -0.3 0 0.4
v -0.2 0 0.4
v 0.2 0 0.4
v 0.3 0 0.4
v -0.3 0 0.2
v -0.2 0 0.2
v 0.2 0 0.2
v 0.3 0 0.2
v -0.3 0 -0.2
v -0.2 0 -0.2
v 0.2 0 -0.2
v 0.3 0 -0.2
v -0.3 0 -0.4
v -0.2 0 -0.4
v 0.2 0 -0.4
v 0.3 0 -0.4
v -0.3 0.2 0.6
v 0.3 0.2 0.6
v -0.3 0.2 0.4
v -0.2 0.2 0.4
v 0.2 0.2 0.4
v 0.3 0.2 0.4
v -0.3 0.2 0.2
v -0.2 0.2 0.2
v 0.2 0.2 0.2
v 0.3 0.2 0.2
v -0.3 0.2 -0.2
v -0.2 0.2 -0.2
v 0.2 0.2 -0.2
v 0.3 0.2 -0.2
v -0.3 0.2 -0.4
v -0.2 0.2 -0.4
v 0.2 0.2 -0.4
v 0.3 0.2 -0.4
v -0.3 0.2 -0.5
v -0.2 0.2 -0.5
v 0.2 0.2 -0.5
v 0.3 0.2 -0.5
v -0.3 0.2 -0.6
v -0.2 0.2 -0.6
v 0.2 0.2 -0.6
v 0.3 0.2 -0.6
v -0.3 0.4 0.6
v -0.2 0.4 0.6
v 0.2 0.4 0.6
v 0.3 0.4 0.6
v -0.3 0.4 0.5
v -0.2 0.4 0.5
v 0.2 0.4 0.5
v 0.3 0.4 0.5
v -0.3 0.4 0.4
v 0.3 0.4 0.4
v -0.3 0.4 -0.4
v -0.2 0.4 -0.4
v 0.2 0.4 -0.4
v 0.3 0.4 -0.4
v -0.3 0.4 -0.5
v -0.2 0.4 -0.5
v 0.2 0.4 -0.5
v 0.3 0.4 -0.5
v -0.3 0.4 -0.6
v -0.2 0.4 -0.6
v 0.2 0.4 -0.6
v 0.3 0.4 -0.6
v -0.3 0.7 0.4
v 0.3 0.7 0.4
v -0.3 0.7 -0.4
v 0.3 0.7 -0.4

# faces
f 6/6/1 2/6/1 1/6/1
f 7/6/1 2/6/1 6/6/1
f 8/6/1 4/6/1 3/6/1
f 9/6/1 4/6/1 8/6/1
f 12/3/1 7/3/1 6/3/1
f 12/3/1 6/3/1 5/3/1
f 12/3/1 10/3/1 9/3/1
f 12/3/1 9/3/1 8/3/1
f 12/3/1 8/3/1 7/3/1
f 13/3/1 10/3/1 12/3/1
f 14/2/1 11/2/1 10/2/1
f 14/3/1 10/3/1 13/3/1
f 15/2/1 11/2/1 14/2/1
f 16/5/1 13/5/1 12/5/1
f 17/3/1 14/3/1 13/3/1
f 17/5/1 13/5/1 16/5/1
f 18/3/1 14/3/1 17/3/1
f 19/3/1 14/3/1 18/3/1
f 20/3/1 14/3/1 19/3/1
f 21/3/1 14/3/1 20/3/1
f 22/3/1 14/3/1 21/3/1
f 23/1/1 15/1/1 14/1/1
f 23/3/1 14/3/1 22/3/1
f 24/1/1 15/1/1 23/1/1
f 25/4/1 19/4/1 18/4/1
f 26/3/1 20/3/1 19/3/1
f 26/4/1 19/4/1 25/4/1
f 27/4/1 21/4/1 20/4/1
f 27/3/1 20/3/1 26/3/1
f 28/3/1 22/3/1 21/3/1
f 28/4/1 21/4/1 27/4/1
f 29/3/1 27/3/1 26/3/1
f 29/3/1 26/3/1 25/3/1
f 29/3/1 28/3/1 27/3/1
f 30/3/1 22/3/1 28/3/1
f 30/3/1 28/3/1 29/3/1
f 35/6/1 32/6/1 31/6/1
f 36/6/1 32/6/1 35/6/1
f 37/6/1 34/6/1 33/6/1
f 38/6/1 34/6/1 37/6/1
f 39/6/2 40/6/2 43/6/2
f 43/6/2 40/6/2 44/6/2
f 41/6/2 42/6/2 45/6/2
f 45/6/2 42/6/2 46/6/2
f 47/6/2 48/6/2 52/6/2
f 52/6/2 48/6/2 53/6/2
f 49/6/2 50/6/2 54/6/2
f 54/6/2 50/6/2 55/6/2
f 52/3/2 53/3/2 58/3/2
f 51/3/2 52/3/2 58/3/2
f 55/3/2 56/3/2 58/3/2
f 54/3/2 55/3/2 58/3/2
f 53/3/2 54/3/2 58/3/2
f 58/3/2 56/3/2 59/3/2
f 56/2/2 57/2/2 60/2/2
f 59/3/2 56/3/2 60/3/2
f 60/2/2 57/2/2 61/2/2
f 58/5/2 59/5/2 62/5/2
f 59/3/2 60/3/2 63/3/2
f 62/5/2 59/5/2 63/5/2
f 63/3/2 60/3/2 64/3/2
f 64/3/2 60/3/2 65/3/2
f 65/3/2 60/3/2 66/3/2
f 66/3/2 60/3/2 67/3/2
f 67/3/2 60/3/2 68/3/2
f 60/1/2 61/1/2 69/1/2
f 68/3/2 60/3/2 69/3/2
f 69/1/2 61/1/2 70/1/2
f 64/4/2 65/4/2 71/4/2
f 65/3/2 66/3/2 72/3/2
f 71/4/2 65/4/2 72/4/2
f 66/4/2 67/4/2 73/4/2
f 72/3/2 66/3/2 73/3/2
f 67/3/2 68/3/2 74/3/2
f 73/4/2 67/4/2 74/4/2
f 72/3/2 73/3/2 75/3/2
f 71/3/2 72/3/2 75/3/2
f 73/3/2 74/3/2 75/3/2
f 74/3/2 68/3/2 76/3/2
f 75/3/2 74/3/2 76/3/2
f 80/3/3 78/3/3 77/3/3
f 80/5/3 79/5/3 78/5/3
f 81/5/3 79/5/3 80/5/3
f 82/3/3 80/3/3 77/3/3
f 82/3/3 81/3/3 80/3/3
f 83/3/3 81/3/3 82/3/3
f 84/3/3 82/3/3 77/3/3
f 85/5/3 83/5/3 82/5/3
f 85/3/3 82/3/3 84/3/3
f 86/5/3 83/5/3 85/5/3
f 92/6/3 88/6/3 87/6/3
f 93/6/3 88/6/3 92/6/3
f 96/6/3 95/6/3 94/6/3
f 97/6/3 95/6/3 96/6/3
f 98/4/3 90/4/3 89/4/3
f 99/3/3 91/3/3 90/3/3
f 99/4/3 90/4/3 98/4/3
f 100/3/3 91/3/3 99/3/3
f 103/6/3 102/6/3 101/6/3
f 104/6/3 102/6/3 103/6/3
f 107/6/3 106/6/3 105/6/3
f 108/6/3 106/6/3 107/6/3
f 109/6/4 110/6/4 111/6/4
f 111/6/4 110/6/4 112/6/4
f 113/6/4 114/6/4 115/6/4
f 115/6/4 114/6/4 116/6/4
f 117/6/4 118/6/4 121/6/4
f 121/6/4 118/6/4 122/6/4
f 119/3/4 120/3/4 123/3/4
f 123/3/4 120/3/4 124/3/4
f 123/4/4 124/4/4 127/4/4
f 124/3/4 120/3/4 128/3/4
f 127/4/4 124/4/4 128/4/4
f 125/6/4 126/6/4 129/6/4
f 129/6/4 126/6/4 130/6/4
f 127/3/4 128/3/4 131/3/4
f 128/3/4 120/3/4 132/3/4
f 131/3/4 128/3/4 132/3/4
f 133/2/4 134/2/4 136/2/4
f 134/1/4 135/1/4 137/1/4
f 136/2/4 134/2/4 137/2/4
f 137/1/4 135/1/4 138/1/4
f 136/3/4 137/3/4 139/3/4
f 137/3/4 138/3/4 139/3/4
f 139/3/4 138/3/4 140/3/4
f 140/3/4 138/3/4 141/3/4
f 139/2/4 140/2/4 142/2/4
f 140/1/4 141/1/4 143/1/4
f 142/2/4 140/2/4 143/2/4
f 143/1/4 141/1/4 144/1/4
f 149/6/5 146/6/5 145/6/5
f 150/6/5 146/6/5 149/6/5
f 151/6/5 148/6/5 147/6/5
f 152/6/5 148/6/5 151/6/5
f 157/6/5 154/6/5 153/6/5
f 158/6/5 154/6/5 157/6/5
f 159/6/5 156/6/5 155/6/5
f 160/6/5 156/6/5 159/6/5
f 163/3/5 162/3/5 161/3/5
f 164/3/5 162/3/5 163/3/5
f 165/3/5 162/3/5 164/3/5
f 166/3/5 162/3/5 165/3/5
f 168/3/5 165/3/5 164/3/5
f 169/3/5 165/3/5 168/3/5
f 171/3/5 168/3/5 167/3/5
f 171/3/5 170/3/5 169/3/5
f 171/3/5 169/3/5 168/3/5
f 172/3/5 170/3/5 171/3/5
f 173/3/5 170/3/5 172/3/5
f 174/3/5 170/3/5 173/3/5
f 176/3/5 173/3/5 172/3/5
f 177/3/5 173/3/5 176/3/5
f 179/3/5 176/3/5 175/3/5
f 179/3/5 178/3/5 177/3/5
f 179/3/5 177/3/5 176/3/5
f 180/3/5 178/3/5 179/3/5
f 181/3/5 178/3/5 180/3/5
f 182/3/5 178/3/5 181/3/5
f 183/2/5 180/2/5 179/2/5
f 184/3/5 181/3/5 180/3/5
f 184/2/5 180/2/5 183/2/5
f 185/2/5 182/2/5 181/2/5
f 185/3/5 181/3/5 184/3/5
f 186/2/5 182/2/5 185/2/5
f 187/5/6 188/5/6 191/5/6
f 188/3/6 189/3/6 192/3/6
f 191/5/6 188/5/6 192/5/6
f 189/5/6 190/5/6 193/5/6
f 192/3/6 189/3/6 193/3/6
f 193/5/6 190/5/6 194/5/6
f 191/3/6 192/3/6 195/3/6
f 192/3/6 193/3/6 195/3/6
f 193/3/6 194/3/6 195/3/6
f 195/3/6 194/3/6 196/3/6
f 197/3/6 198/3/6 201/3/6
f 199/3/6 200/3/6 201/3/6
f 198/3/6 199/3/6 201/3/6
f 201/3/6 200/3/6 202/3/6
f 202/3/6 200/3/6 203/3/6
f 203/3/6 200/3/6 204/3/6
f 201/1/6 202/1/6 205/1/6
f 202/3/6 203/3/6 206/3/6
f 205/1/6 202/1/6 206/1/6
f 203/1/6 204/1/6 207/1/6
f 206/3/6 203/3/6 207/3/6
f 207/1/6 204/1/6 208/1/6
f 209/3/6 210/3/6 211/3/6
f 211/3/6 210/3/6 212/3/6
