# MagicaVoxel @ Ephtracy

# group
o 

# material
mtllib crosswalk.mtl
usemtl palette

# normals
vn 0 0 1
vn 0 0 -1
vn 1 0 0
vn -1 0 0
vn 0 -1 0
vn 0 1 0

# texcoords
vt 0.966797 0.5
vt 0.986328 0.5

# verts
v 0.8 0 0.3
v 0.7 0 0.3
v 0.6 0 0.3
v 0.5 0 0.3
v 0.4 0 0.3
v 0.3 0 0.3
v 0.2 0 0.3
v 0.1 0 0.3
v 0 0 0.3
v -0.1 0 0.3
v -0.2 0 0.3
v -0.3 0 0.3
v -0.4 0 0.3
v -0.5 0 0.3
v -0.6 0 0.3
v -0.7 0 0.3
v 0.8 0.1 0.3
v 0.7 0.1 0.3
v 0.6 0.1 0.3
v 0.5 0.1 0.3
v 0.4 0.1 0.3
v 0.3 0.1 0.3
v 0.2 0.1 0.3
v 0.1 0.1 0.3
v 0 0.1 0.3
v -0.1 0.1 0.3
v -0.2 0.1 0.3
v -0.3 0.1 0.3
v -0.4 0.1 0.3
v -0.5 0.1 0.3
v -0.6 0.1 0.3
v -0.7 0.1 0.3
v 0.8 0 -0.3
v 0.7 0 -0.3
v 0.6 0 -0.3
v 0.5 0 -0.3
v 0.4 0 -0.3
v 0.3 0 -0.3
v 0.2 0 -0.3
v 0.1 0 -0.3
v 0 0 -0.3
v -0.1 0 -0.3
v -0.2 0 -0.3
v -0.3 0 -0.3
v -0.4 0 -0.3
v -0.5 0 -0.3
v -0.6 0 -0.3
v -0.7 0 -0.3
v 0.8 0.1 -0.3
v 0.7 0.1 -0.3
v 0.6 0.1 -0.3
v 0.5 0.1 -0.3
v 0.4 0.1 -0.3
v 0.3 0.1 -0.3
v 0.2 0.1 -0.3
v 0.1 0.1 -0.3
v 0 0.1 -0.3
v -0.1 0.1 -0.3
v -0.2 0.1 -0.3
v -0.3 0.1 -0.3
v -0.4 0.1 -0.3
v -0.5 0.1 -0.3
v -0.6 0.1 -0.3
v -0.7 0.1 -0.3
v 0.8 0 0.3
v 0.8 0.1 0.3
v 0.8 0 -0.3
v 0.8 0.1 -0.3
v -0.7 0 0.3
v -0.7 0.1 0.3
v -0.7 0 -0.3
v -0.7 0.1 -0.3
v 0.8 0 0.3
v 0.8 0 -0.3
v 0.7 0 0.3
v 0.7 0 -0.3
v 0.6 0 0.3
v 0.6 0 -0.3
v 0.5 0 0.3
v 0.5 0 -0.3
v 0.4 0 0.3
v 0.4 0 -0.3
v 0.3 0 0.3
v 0.3 0 -0.3
v 0.2 0 0.3
v 0.2 0 -0.3
v 0.1 0 0.3
v 0.1 0 -0.3
v 0 0 0.3
v 0 0 -0.3
v -0.1 0 0.3
v -0.1 0 -0.3
v -0.2 0 0.3
v -0.2 0 -0.3
v -0.3 0 0.3
v -0.3 0 -0.3
v -0.4 0 0.3
v -0.4 0 -0.3
v -0.5 0 0.3
v -0.5 0 -0.3
v -0.6 0 0.3
v -0.6 0 -0.3
v -0.7 0 0.3
v -0.7 0 -0.3
v 0.8 0.1 0.3
v 0.8 0.1 -0.3
v 0.7 0.1 0.3
v 0.7 0.1 -0.3
v 0.6 0.1 0.3
v 0.6 0.1 -0.3
v 0.5 0.1 0.3
v 0.5 0.1 -0.3
v 0.4 0.1 0.3
v 0.4 0.1 -0.3
v 0.3 0.1 0.3
v 0.3 0.1 -0.3
v 0.2 0.1 0.3
v 0.2 0.1 -0.3
v 0.1 0.1 0.3
v 0.1 0.1 -0.3
v 0 0.1 0.3
v 0 0.1 -0.3
v -0.1 0.1 0.3
v -0.1 0.1 -0.3
v -0.2 0.1 0.3
v -0.2 0.1 -0.3
v -0.3 0.1 0.3
v -0.3 0.1 -0.3
v -0.4 0.1 0.3
v -0.4 0.1 -0.3
v -0.5 0.1 0.3
v -0.5 0.1 -0.3
v -0.6 0.1 0.3
v -0.6 0.1 -0.3
v -0.7 0.1 0.3
v -0.7 0.1 -0.3

# faces
f 17/1/1 2/1/1 1/1/1
f 18/2/1 3/2/1 2/2/1
f 18/1/1 2/1/1 17/1/1
f 19/1/1 4/1/1 3/1/1
f 19/2/1 3/2/1 18/2/1
f 20/2/1 5/2/1 4/2/1
f 20/1/1 4/1/1 19/1/1
f 21/1/1 6/1/1 5/1/1
f 21/2/1 5/2/1 20/2/1
f 22/2/1 7/2/1 6/2/1
f 22/1/1 6/1/1 21/1/1
f 23/1/1 8/1/1 7/1/1
f 23/2/1 7/2/1 22/2/1
f 24/2/1 9/2/1 8/2/1
f 24/1/1 8/1/1 23/1/1
f 25/1/1 10/1/1 9/1/1
f 25/2/1 9/2/1 24/2/1
f 26/2/1 11/2/1 10/2/1
f 26/1/1 10/1/1 25/1/1
f 27/1/1 12/1/1 11/1/1
f 27/2/1 11/2/1 26/2/1
f 28/2/1 13/2/1 12/2/1
f 28/1/1 12/1/1 27/1/1
f 29/1/1 14/1/1 13/1/1
f 29/2/1 13/2/1 28/2/1
f 30/2/1 15/2/1 14/2/1
f 30/1/1 14/1/1 29/1/1
f 31/1/1 16/1/1 15/1/1
f 31/2/1 15/2/1 30/2/1
f 32/1/1 16/1/1 31/1/1
f 33/1/2 34/1/2 49/1/2
f 34/2/2 35/2/2 50/2/2
f 49/1/2 34/1/2 50/1/2
f 35/1/2 36/1/2 51/1/2
f 50/2/2 35/2/2 51/2/2
f 36/2/2 37/2/2 52/2/2
f 51/1/2 36/1/2 52/1/2
f 37/1/2 38/1/2 53/1/2
f 52/2/2 37/2/2 53/2/2
f 38/2/2 39/2/2 54/2/2
f 53/1/2 38/1/2 54/1/2
f 39/1/2 40/1/2 55/1/2
f 54/2/2 39/2/2 55/2/2
f 40/2/2 41/2/2 56/2/2
f 55/1/2 40/1/2 56/1/2
f 41/1/2 42/1/2 57/1/2
f 56/2/2 41/2/2 57/2/2
f 42/2/2 43/2/2 58/2/2
f 57/1/2 42/1/2 58/1/2
f 43/1/2 44/1/2 59/1/2
f 58/2/2 43/2/2 59/2/2
f 44/2/2 45/2/2 60/2/2
f 59/1/2 44/1/2 60/1/2
f 45/1/2 46/1/2 61/1/2
f 60/2/2 45/2/2 61/2/2
f 46/2/2 47/2/2 62/2/2
f 61/1/2 46/1/2 62/1/2
f 47/1/2 48/1/2 63/1/2
f 62/2/2 47/2/2 63/2/2
f 63/1/2 48/1/2 64/1/2
f 67/1/3 66/1/3 65/1/3
f 68/1/3 66/1/3 67/1/3
f 69/1/4 70/1/4 71/1/4
f 71/1/4 70/1/4 72/1/4
f 75/1/5 74/1/5 73/1/5
f 76/1/5 74/1/5 75/1/5
f 77/2/5 76/2/5 75/2/5
f 78/2/5 76/2/5 77/2/5
f 79/1/5 78/1/5 77/1/5
f 80/1/5 78/1/5 79/1/5
f 81/2/5 80/2/5 79/2/5
f 82/2/5 80/2/5 81/2/5
f 83/1/5 82/1/5 81/1/5
f 84/1/5 82/1/5 83/1/5
f 85/2/5 84/2/5 83/2/5
f 86/2/5 84/2/5 85/2/5
f 87/1/5 86/1/5 85/1/5
f 88/1/5 86/1/5 87/1/5
f 89/2/5 88/2/5 87/2/5
f 90/2/5 88/2/5 89/2/5
f 91/1/5 90/1/5 89/1/5
f 92/1/5 90/1/5 91/1/5
f 93/2/5 92/2/5 91/2/5
f 94/2/5 92/2/5 93/2/5
f 95/1/5 94/1/5 93/1/5
f 96/1/5 94/1/5 95/1/5
f 97/2/5 96/2/5 95/2/5
f 98/2/5 96/2/5 97/2/5
f 99/1/5 98/1/5 97/1/5
f 100/1/5 98/1/5 99/1/5
f 101/2/5 100/2/5 99/2/5
f 102/2/5 100/2/5 101/2/5
f 103/1/5 102/1/5 101/1/5
f 104/1/5 102/1/5 103/1/5
f 105/1/6 106/1/6 107/1/6
f 107/1/6 106/1/6 108/1/6
f 107/2/6 108/2/6 109/2/6
f 109/2/6 108/2/6 110/2/6
f 109/1/6 110/1/6 111/1/6
f 111/1/6 110/1/6 112/1/6
f 111/2/6 112/2/6 113/2/6
f 113/2/6 112/2/6 114/2/6
f 113/1/6 114/1/6 115/1/6
f 115/1/6 114/1/6 116/1/6
f 115/2/6 116/2/6 117/2/6
f 117/2/6 116/2/6 118/2/6
f 117/1/6 118/1/6 119/1/6
f 119/1/6 118/1/6 120/1/6
f 119/2/6 120/2/6 121/2/6
f 121/2/6 120/2/6 122/2/6
f 121/1/6 122/1/6 123/1/6
f 123/1/6 122/1/6 124/1/6
f 123/2/6 124/2/6 125/2/6
f 125/2/6 124/2/6 126/2/6
f 125/1/6 126/1/6 127/1/6
f 127/1/6 126/1/6 128/1/6
f 127/2/6 128/2/6 129/2/6
f 129/2/6 128/2/6 130/2/6
f 129/1/6 130/1/6 131/1/6
f 131/1/6 130/1/6 132/1/6
f 131/2/6 132/2/6 133/2/6
f 133/2/6 132/2/6 134/2/6
f 133/1/6 134/1/6 135/1/6
f 135/1/6 134/1/6 136/1/6
