# MagicaVoxel @ Ephtracy

# group
o 

# material
mtllib dead_end.mtl
usemtl palette

# normals
vn -1 0 0
vn 1 0 0
vn 0 0 1
vn 0 0 -1
vn 0 -1 0
vn 0 1 0

# texcoords
vt 0.966797 0.5
vt 0.986328 0.5

# verts
v -0.1 0 0.7
v -0.1 0 0.6
v -0.1 0 -0.7
v -0.1 0 -0.8
v -0.1 0.1 0.7
v -0.1 0.1 0.6
v -0.1 0.1 -0.7
v -0.1 0.1 -0.8
v 0.4 0 0.7
v 0.4 0 -0.8
v 0.4 0.1 0.7
v 0.4 0.1 -0.8
v -0.1 0 0.7
v -0.1 0.1 0.7
v 0.4 0 0.7
v 0.4 0.1 0.7
v -0.1 0 -0.8
v -0.1 0.1 -0.8
v 0.4 0 -0.8
v 0.4 0.1 -0.8
v -0.1 0 0.7
v 0.4 0 0.7
v -0.1 0 0.6
v 0.3 0 0.6
v 0 0 0
v 0.2 0 0
v 0 0 -0.1
v 0.2 0 -0.1
v -0.1 0 -0.7
v 0.3 0 -0.7
v -0.1 0 -0.8
v 0.4 0 -0.8
v -0.1 0.1 0.7
v 0.4 0.1 0.7
v -0.1 0.1 0.6
v 0.3 0.1 0.6
v 0 0.1 0
v 0.2 0.1 0
v 0 0.1 -0.1
v 0.2 0.1 -0.1
v -0.1 0.1 -0.7
v 0.3 0.1 -0.7
v -0.1 0.1 -0.8
v 0.4 0.1 -0.8

# faces
f 5/1/1 2/1/1 1/1/1
f 6/2/1 3/2/1 2/2/1
f 6/1/1 2/1/1 5/1/1
f 7/1/1 4/1/1 3/1/1
f 7/2/1 3/2/1 6/2/1
f 8/1/1 4/1/1 7/1/1
f 9/1/2 10/1/2 11/1/2
f 11/1/2 10/1/2 12/1/2
f 15/1/3 14/1/3 13/1/3
f 16/1/3 14/1/3 15/1/3
f 17/1/4 18/1/4 19/1/4
f 19/1/4 18/1/4 20/1/4
f 23/1/5 22/1/5 21/1/5
f 24/1/5 22/1/5 23/1/5
f 25/2/5 24/2/5 23/2/5
f 26/2/5 24/2/5 25/2/5
f 27/2/5 25/2/5 23/2/5
f 27/1/5 26/1/5 25/1/5
f 28/2/5 24/2/5 26/2/5
f 28/1/5 26/1/5 27/1/5
f 29/2/5 27/2/5 23/2/5
f 29/2/5 28/2/5 27/2/5
f 30/1/5 22/1/5 24/1/5
f 30/2/5 28/2/5 29/2/5
f 30/2/5 24/2/5 28/2/5
f 31/1/5 30/1/5 29/1/5
f 32/1/5 22/1/5 30/1/5
f 32/1/5 30/1/5 31/1/5
f 33/1/6 34/1/6 35/1/6
f 35/1/6 34/1/6 36/1/6
f 35/2/6 36/2/6 37/2/6
f 37/2/6 36/2/6 38/2/6
f 35/2/6 37/2/6 39/2/6
f 37/1/6 38/1/6 39/1/6
f 38/2/6 36/2/6 40/2/6
f 39/1/6 38/1/6 40/1/6
f 35/2/6 39/2/6 41/2/6
f 39/2/6 40/2/6 41/2/6
f 36/1/6 34/1/6 42/1/6
f 41/2/6 40/2/6 42/2/6
f 40/2/6 36/2/6 42/2/6
f 41/1/6 42/1/6 43/1/6
f 42/1/6 34/1/6 44/1/6
f 43/1/6 42/1/6 44/1/6
