# MagicaVoxel @ Ephtracy

# group
o 

# material
mtllib medium_road.mtl
usemtl palette

# normals
vn -1 0 0
vn 1 0 0
vn 0 0 1
vn 0 0 -1
vn 0 -1 0
vn 0 1 0

# texcoords
vt 0.966797 0.5
vt 0.986328 0.5

# verts
v -4.5 0 0.7
v -4.5 0 0.6
v -4.5 0 -0.7
v -4.5 0 -0.8
v -4.5 0.1 0.7
v -4.5 0.1 0.6
v -4.5 0.1 -0.7
v -4.5 0.1 -0.8
v 1.5 0 0.7
v 1.5 0 0.6
v 1.5 0 0
v 1.5 0 -0.1
v 1.5 0 -0.7
v 1.5 0 -0.8
v 1.5 0.1 0.7
v 1.5 0.1 0.6
v 1.5 0.1 0
v 1.5 0.1 -0.1
v 1.5 0.1 -0.7
v 1.5 0.1 -0.8
v -4.5 0 0.7
v -4.5 0.1 0.7
v 1.5 0 0.7
v 1.5 0.1 0.7
v -4.5 0 -0.8
v -4.5 0.1 -0.8
v 1.5 0 -0.8
v 1.5 0.1 -0.8
v -4.5 0 0.7
v 1.5 0 0.7
v -4.5 0 0.6
v 1.5 0 0.6
v -4.4 0 0
v -4.2 0 0
v -4.1 0 0
v -3.9 0 0
v -3.8 0 0
v -3.6 0 0
v -3.5 0 0
v -3.3 0 0
v -3.2 0 0
v -3 0 0
v -2.9 0 0
v -2.7 0 0
v -2.6 0 0
v -2.4 0 0
v -2.3 0 0
v -2.1 0 0
v -2 0 0
v -1.8 0 0
v -1.7 0 0
v -1.5 0 0
v -1.4 0 0
v -1.2 0 0
v -1.1 0 0
v -0.9 0 0
v -0.8 0 0
v -0.6 0 0
v -0.5 0 0
v -0.3 0 0
v -0.2 0 0
v 0 0 0
v 0.1 0 0
v 0.3 0 0
v 0.4 0 0
v 0.6 0 0
v 0.7 0 0
v 0.9 0 0
v 1 0 0
v 1.2 0 0
v 1.3 0 0
v 1.5 0 0
v -4.4 0 -0.1
v -4.2 0 -0.1
v -4.1 0 -0.1
v -3.9 0 -0.1
v -3.8 0 -0.1
v -3.6 0 -0.1
v -3.5 0 -0.1
v -3.3 0 -0.1
v -3.2 0 -0.1
v -3 0 -0.1
v -2.9 0 -0.1
v -2.7 0 -0.1
v -2.6 0 -0.1
v -2.4 0 -0.1
v -2.3 0 -0.1
v -2.1 0 -0.1
v -2 0 -0.1
v -1.8 0 -0.1
v -1.7 0 -0.1
v -1.5 0 -0.1
v -1.4 0 -0.1
v -1.2 0 -0.1
v -1.1 0 -0.1
v -0.9 0 -0.1
v -0.8 0 -0.1
v -0.6 0 -0.1
v -0.5 0 -0.1
v -0.3 0 -0.1
v -0.2 0 -0.1
v 0 0 -0.1
v 0.1 0 -0.1
v 0.3 0 -0.1
v 0.4 0 -0.1
v 0.6 0 -0.1
v 0.7 0 -0.1
v 0.9 0 -0.1
v 1 0 -0.1
v 1.2 0 -0.1
v 1.3 0 -0.1
v 1.5 0 -0.1
v -4.5 0 -0.7
v 1.5 0 -0.7
v -4.5 0 -0.8
v 1.5 0 -0.8
v -4.5 0.1 0.7
v 1.5 0.1 0.7
v -4.5 0.1 0.6
v 1.5 0.1 0.6
v -4.4 0.1 0
v -4.2 0.1 0
v -4.1 0.1 0
v -3.9 0.1 0
v -3.8 0.1 0
v -3.6 0.1 0
v -3.5 0.1 0
v -3.3 0.1 0
v -3.2 0.1 0
v -3 0.1 0
v -2.9 0.1 0
v -2.7 0.1 0
v -2.6 0.1 0
v -2.4 0.1 0
v -2.3 0.1 0
v -2.1 0.1 0
v -2 0.1 0
v -1.8 0.1 0
v -1.7 0.1 0
v -1.5 0.1 0
v -1.4 0.1 0
v -1.2 0.1 0
v -1.1 0.1 0
v -0.9 0.1 0
v -0.8 0.1 0
v -0.6 0.1 0
v -0.5 0.1 0
v -0.3 0.1 0
v -0.2 0.1 0
v 0 0.1 0
v 0.1 0.1 0
v 0.3 0.1 0
v 0.4 0.1 0
v 0.6 0.1 0
v 0.7 0.1 0
v 0.9 0.1 0
v 1 0.1 0
v 1.2 0.1 0
v 1.3 0.1 0
v 1.5 0.1 0
v -4.4 0.1 -0.1
v -4.2 0.1 -0.1
v -4.1 0.1 -0.1
v -3.9 0.1 -0.1
v -3.8 0.1 -0.1
v -3.6 0.1 -0.1
v -3.5 0.1 -0.1
v -3.3 0.1 -0.1
v -3.2 0.1 -0.1
v -3 0.1 -0.1
v -2.9 0.1 -0.1
v -2.7 0.1 -0.1
v -2.6 0.1 -0.1
v -2.4 0.1 -0.1
v -2.3 0.1 -0.1
v -2.1 0.1 -0.1
v -2 0.1 -0.1
v -1.8 0.1 -0.1
v -1.7 0.1 -0.1
v -1.5 0.1 -0.1
v -1.4 0.1 -0.1
v -1.2 0.1 -0.1
v -1.1 0.1 -0.1
v -0.9 0.1 -0.1
v -0.8 0.1 -0.1
v -0.6 0.1 -0.1
v -0.5 0.1 -0.1
v -0.3 0.1 -0.1
v -0.2 0.1 -0.1
v 0 0.1 -0.1
v 0.1 0.1 -0.1
v 0.3 0.1 -0.1
v 0.4 0.1 -0.1
v 0.6 0.1 -0.1
v 0.7 0.1 -0.1
v 0.9 0.1 -0.1
v 1 0.1 -0.1
v 1.2 0.1 -0.1
v 1.3 0.1 -0.1
v 1.5 0.1 -0.1
v -4.5 0.1 -0.7
v 1.5 0.1 -0.7
v -4.5 0.1 -0.8
v 1.5 0.1 -0.8

# faces
f 5/1/1 2/1/1 1/1/1
f 6/2/1 3/2/1 2/2/1
f 6/1/1 2/1/1 5/1/1
f 7/1/1 4/1/1 3/1/1
f 7/2/1 3/2/1 6/2/1
f 8/1/1 4/1/1 7/1/1
f 9/1/2 10/1/2 15/1/2
f 10/2/2 11/2/2 16/2/2
f 15/1/2 10/1/2 16/1/2
f 11/1/2 12/1/2 17/1/2
f 16/2/2 11/2/2 17/2/2
f 12/2/2 13/2/2 18/2/2
f 17/1/2 12/1/2 18/1/2
f 13/1/2 14/1/2 19/1/2
f 18/2/2 13/2/2 19/2/2
f 19/1/2 14/1/2 20/1/2
f 23/1/3 22/1/3 21/1/3
f 24/1/3 22/1/3 23/1/3
f 25/1/4 26/1/4 27/1/4
f 27/1/4 26/1/4 28/1/4
f 31/1/5 30/1/5 29/1/5
f 32/1/5 30/1/5 31/1/5
f 33/2/5 32/2/5 31/2/5
f 34/2/5 32/2/5 33/2/5
f 35/2/5 32/2/5 34/2/5
f 36/2/5 32/2/5 35/2/5
f 37/2/5 32/2/5 36/2/5
f 38/2/5 32/2/5 37/2/5
f 39/2/5 32/2/5 38/2/5
f 40/2/5 32/2/5 39/2/5
f 41/2/5 32/2/5 40/2/5
f 42/2/5 32/2/5 41/2/5
f 43/2/5 32/2/5 42/2/5
f 44/2/5 32/2/5 43/2/5
f 45/2/5 32/2/5 44/2/5
f 46/2/5 32/2/5 45/2/5
f 47/2/5 32/2/5 46/2/5
f 48/2/5 32/2/5 47/2/5
f 49/2/5 32/2/5 48/2/5
f 50/2/5 32/2/5 49/2/5
f 51/2/5 32/2/5 50/2/5
f 52/2/5 32/2/5 51/2/5
f 53/2/5 32/2/5 52/2/5
f 54/2/5 32/2/5 53/2/5
f 55/2/5 32/2/5 54/2/5
f 56/2/5 32/2/5 55/2/5
f 57/2/5 32/2/5 56/2/5
f 58/2/5 32/2/5 57/2/5
f 59/2/5 32/2/5 58/2/5
f 60/2/5 32/2/5 59/2/5
f 61/2/5 32/2/5 60/2/5
f 62/2/5 32/2/5 61/2/5
f 63/2/5 32/2/5 62/2/5
f 64/2/5 32/2/5 63/2/5
f 65/2/5 32/2/5 64/2/5
f 66/2/5 32/2/5 65/2/5
f 67/2/5 32/2/5 66/2/5
f 68/2/5 32/2/5 67/2/5
f 69/2/5 32/2/5 68/2/5
f 70/2/5 32/2/5 69/2/5
f 71/2/5 32/2/5 70/2/5
f 72/2/5 32/2/5 71/2/5
f 73/2/5 33/2/5 31/2/5
f 73/1/5 34/1/5 33/1/5
f 74/2/5 35/2/5 34/2/5
f 74/1/5 34/1/5 73/1/5
f 75/1/5 36/1/5 35/1/5
f 75/2/5 35/2/5 74/2/5
f 76/2/5 37/2/5 36/2/5
f 76/1/5 36/1/5 75/1/5
f 77/1/5 38/1/5 37/1/5
f 77/2/5 37/2/5 76/2/5
f 78/2/5 39/2/5 38/2/5
f 78/1/5 38/1/5 77/1/5
f 79/1/5 40/1/5 39/1/5
f 79/2/5 39/2/5 78/2/5
f 80/2/5 41/2/5 40/2/5
f 80/1/5 40/1/5 79/1/5
f 81/1/5 42/1/5 41/1/5
f 81/2/5 41/2/5 80/2/5
f 82/2/5 43/2/5 42/2/5
f 82/1/5 42/1/5 81/1/5
f 83/1/5 44/1/5 43/1/5
f 83/2/5 43/2/5 82/2/5
f 84/2/5 45/2/5 44/2/5
f 84/1/5 44/1/5 83/1/5
f 85/1/5 46/1/5 45/1/5
f 85/2/5 45/2/5 84/2/5
f 86/2/5 47/2/5 46/2/5
f 86/1/5 46/1/5 85/1/5
f 87/1/5 48/1/5 47/1/5
f 87/2/5 47/2/5 86/2/5
f 88/2/5 49/2/5 48/2/5
f 88/1/5 48/1/5 87/1/5
f 89/1/5 50/1/5 49/1/5
f 89/2/5 49/2/5 88/2/5
f 90/2/5 51/2/5 50/2/5
f 90/1/5 50/1/5 89/1/5
f 91/1/5 52/1/5 51/1/5
f 91/2/5 51/2/5 90/2/5
f 92/2/5 53/2/5 52/2/5
f 92/1/5 52/1/5 91/1/5
f 93/1/5 54/1/5 53/1/5
f 93/2/5 53/2/5 92/2/5
f 94/2/5 55/2/5 54/2/5
f 94/1/5 54/1/5 93/1/5
f 95/1/5 56/1/5 55/1/5
f 95/2/5 55/2/5 94/2/5
f 96/2/5 57/2/5 56/2/5
f 96/1/5 56/1/5 95/1/5
f 97/1/5 58/1/5 57/1/5
f 97/2/5 57/2/5 96/2/5
f 98/2/5 59/2/5 58/2/5
f 98/1/5 58/1/5 97/1/5
f 99/1/5 60/1/5 59/1/5
f 99/2/5 59/2/5 98/2/5
f 100/2/5 61/2/5 60/2/5
f 100/1/5 60/1/5 99/1/5
f 101/1/5 62/1/5 61/1/5
f 101/2/5 61/2/5 100/2/5
f 102/2/5 63/2/5 62/2/5
f 102/1/5 62/1/5 101/1/5
f 103/1/5 64/1/5 63/1/5
f 103/2/5 63/2/5 102/2/5
f 104/2/5 65/2/5 64/2/5
f 104/1/5 64/1/5 103/1/5
f 105/1/5 66/1/5 65/1/5
f 105/2/5 65/2/5 104/2/5
f 106/2/5 67/2/5 66/2/5
f 106/1/5 66/1/5 105/1/5
f 107/1/5 68/1/5 67/1/5
f 107/2/5 67/2/5 106/2/5
f 108/2/5 69/2/5 68/2/5
f 108/1/5 68/1/5 107/1/5
f 109/1/5 70/1/5 69/1/5
f 109/2/5 69/2/5 108/2/5
f 110/2/5 71/2/5 70/2/5
f 110/1/5 70/1/5 109/1/5
f 111/1/5 72/1/5 71/1/5
f 111/2/5 71/2/5 110/2/5
f 112/1/5 72/1/5 111/1/5
f 113/2/5 110/2/5 109/2/5
f 113/2/5 73/2/5 31/2/5
f 113/2/5 112/2/5 111/2/5
f 113/2/5 111/2/5 110/2/5
f 113/2/5 109/2/5 108/2/5
f 113/2/5 108/2/5 107/2/5
f 113/2/5 107/2/5 106/2/5
f 113/2/5 106/2/5 105/2/5
f 113/2/5 105/2/5 104/2/5
f 113/2/5 104/2/5 103/2/5
f 113/2/5 103/2/5 102/2/5
f 113/2/5 102/2/5 101/2/5
f 113/2/5 101/2/5 100/2/5
f 113/2/5 100/2/5 99/2/5
f 113/2/5 99/2/5 98/2/5
f 113/2/5 98/2/5 97/2/5
f 113/2/5 97/2/5 96/2/5
f 113/2/5 96/2/5 95/2/5
f 113/2/5 95/2/5 94/2/5
f 113/2/5 94/2/5 93/2/5
f 113/2/5 93/2/5 92/2/5
f 113/2/5 92/2/5 91/2/5
f 113/2/5 91/2/5 90/2/5
f 113/2/5 90/2/5 89/2/5
f 113/2/5 89/2/5 88/2/5
f 113/2/5 88/2/5 87/2/5
f 113/2/5 87/2/5 86/2/5
f 113/2/5 86/2/5 85/2/5
f 113/2/5 85/2/5 84/2/5
f 113/2/5 84/2/5 83/2/5
f 113/2/5 83/2/5 82/2/5
f 113/2/5 82/2/5 81/2/5
f 113/2/5 81/2/5 80/2/5
f 113/2/5 80/2/5 79/2/5
f 113/2/5 79/2/5 78/2/5
f 113/2/5 78/2/5 77/2/5
f 113/2/5 77/2/5 76/2/5
f 113/2/5 76/2/5 75/2/5
f 113/2/5 75/2/5 74/2/5
f 113/2/5 74/2/5 73/2/5
f 114/2/5 112/2/5 113/2/5
f 115/1/5 114/1/5 113/1/5
f 116/1/5 114/1/5 115/1/5
f 117/1/6 118/1/6 119/1/6
f 119/1/6 118/1/6 120/1/6
f 119/2/6 120/2/6 121/2/6
f 121/2/6 120/2/6 122/2/6
f 122/2/6 120/2/6 123/2/6
f 123/2/6 120/2/6 124/2/6
f 124/2/6 120/2/6 125/2/6
f 125/2/6 120/2/6 126/2/6
f 126/2/6 120/2/6 127/2/6
f 127/2/6 120/2/6 128/2/6
f 128/2/6 120/2/6 129/2/6
f 129/2/6 120/2/6 130/2/6
f 130/2/6 120/2/6 131/2/6
f 131/2/6 120/2/6 132/2/6
f 132/2/6 120/2/6 133/2/6
f 133/2/6 120/2/6 134/2/6
f 134/2/6 120/2/6 135/2/6
f 135/2/6 120/2/6 136/2/6
f 136/2/6 120/2/6 137/2/6
f 137/2/6 120/2/6 138/2/6
f 138/2/6 120/2/6 139/2/6
f 139/2/6 120/2/6 140/2/6
f 140/2/6 120/2/6 141/2/6
f 141/2/6 120/2/6 142/2/6
f 142/2/6 120/2/6 143/2/6
f 143/2/6 120/2/6 144/2/6
f 144/2/6 120/2/6 145/2/6
f 145/2/6 120/2/6 146/2/6
f 146/2/6 120/2/6 147/2/6
f 147/2/6 120/2/6 148/2/6
f 148/2/6 120/2/6 149/2/6
f 149/2/6 120/2/6 150/2/6
f 150/2/6 120/2/6 151/2/6
f 151/2/6 120/2/6 152/2/6
f 152/2/6 120/2/6 153/2/6
f 153/2/6 120/2/6 154/2/6
f 154/2/6 120/2/6 155/2/6
f 155/2/6 120/2/6 156/2/6
f 156/2/6 120/2/6 157/2/6
f 157/2/6 120/2/6 158/2/6
f 158/2/6 120/2/6 159/2/6
f 159/2/6 120/2/6 160/2/6
f 119/2/6 121/2/6 161/2/6
f 121/1/6 122/1/6 161/1/6
f 122/2/6 123/2/6 162/2/6
f 161/1/6 122/1/6 162/1/6
f 123/1/6 124/1/6 163/1/6
f 162/2/6 123/2/6 163/2/6
f 124/2/6 125/2/6 164/2/6
f 163/1/6 124/1/6 164/1/6
f 125/1/6 126/1/6 165/1/6
f 164/2/6 125/2/6 165/2/6
f 126/2/6 127/2/6 166/2/6
f 165/1/6 126/1/6 166/1/6
f 127/1/6 128/1/6 167/1/6
f 166/2/6 127/2/6 167/2/6
f 128/2/6 129/2/6 168/2/6
f 167/1/6 128/1/6 168/1/6
f 129/1/6 130/1/6 169/1/6
f 168/2/6 129/2/6 169/2/6
f 130/2/6 131/2/6 170/2/6
f 169/1/6 130/1/6 170/1/6
f 131/1/6 132/1/6 171/1/6
f 170/2/6 131/2/6 171/2/6
f 132/2/6 133/2/6 172/2/6
f 171/1/6 132/1/6 172/1/6
f 133/1/6 134/1/6 173/1/6
f 172/2/6 133/2/6 173/2/6
f 134/2/6 135/2/6 174/2/6
f 173/1/6 134/1/6 174/1/6
f 135/1/6 136/1/6 175/1/6
f 174/2/6 135/2/6 175/2/6
f 136/2/6 137/2/6 176/2/6
f 175/1/6 136/1/6 176/1/6
f 137/1/6 138/1/6 177/1/6
f 176/2/6 137/2/6 177/2/6
f 138/2/6 139/2/6 178/2/6
f 177/1/6 138/1/6 178/1/6
f 139/1/6 140/1/6 179/1/6
f 178/2/6 139/2/6 179/2/6
f 140/2/6 141/2/6 180/2/6
f 179/1/6 140/1/6 180/1/6
f 141/1/6 142/1/6 181/1/6
f 180/2/6 141/2/6 181/2/6
f 142/2/6 143/2/6 182/2/6
f 181/1/6 142/1/6 182/1/6
f 143/1/6 144/1/6 183/1/6
f 182/2/6 143/2/6 183/2/6
f 144/2/6 145/2/6 184/2/6
f 183/1/6 144/1/6 184/1/6
f 145/1/6 146/1/6 185/1/6
f 184/2/6 145/2/6 185/2/6
f 146/2/6 147/2/6 186/2/6
f 185/1/6 146/1/6 186/1/6
f 147/1/6 148/1/6 187/1/6
f 186/2/6 147/2/6 187/2/6
f 148/2/6 149/2/6 188/2/6
f 187/1/6 148/1/6 188/1/6
f 149/1/6 150/1/6 189/1/6
f 188/2/6 149/2/6 189/2/6
f 150/2/6 151/2/6 190/2/6
f 189/1/6 150/1/6 190/1/6
f 151/1/6 152/1/6 191/1/6
f 190/2/6 151/2/6 191/2/6
f 152/2/6 153/2/6 192/2/6
f 191/1/6 152/1/6 192/1/6
f 153/1/6 154/1/6 193/1/6
f 192/2/6 153/2/6 193/2/6
f 154/2/6 155/2/6 194/2/6
f 193/1/6 154/1/6 194/1/6
f 155/1/6 156/1/6 195/1/6
f 194/2/6 155/2/6 195/2/6
f 156/2/6 157/2/6 196/2/6
f 195/1/6 156/1/6 196/1/6
f 157/1/6 158/1/6 197/1/6
f 196/2/6 157/2/6 197/2/6
f 158/2/6 159/2/6 198/2/6
f 197/1/6 158/1/6 198/1/6
f 159/1/6 160/1/6 199/1/6
f 198/2/6 159/2/6 199/2/6
f 199/1/6 160/1/6 200/1/6
f 197/2/6 198/2/6 201/2/6
f 119/2/6 161/2/6 201/2/6
f 199/2/6 200/2/6 201/2/6
f 198/2/6 199/2/6 201/2/6
f 196/2/6 197/2/6 201/2/6
f 195/2/6 196/2/6 201/2/6
f 194/2/6 195/2/6 201/2/6
f 193/2/6 194/2/6 201/2/6
f 192/2/6 193/2/6 201/2/6
f 191/2/6 192/2/6 201/2/6
f 190/2/6 191/2/6 201/2/6
f 189/2/6 190/2/6 201/2/6
f 188/2/6 189/2/6 201/2/6
f 187/2/6 188/2/6 201/2/6
f 186/2/6 187/2/6 201/2/6
f 185/2/6 186/2/6 201/2/6
f 184/2/6 185/2/6 201/2/6
f 183/2/6 184/2/6 201/2/6
f 182/2/6 183/2/6 201/2/6
f 181/2/6 182/2/6 201/2/6
f 180/2/6 181/2/6 201/2/6
f 179/2/6 180/2/6 201/2/6
f 178/2/6 179/2/6 201/2/6
f 177/2/6 178/2/6 201/2/6
f 176/2/6 177/2/6 201/2/6
f 175/2/6 176/2/6 201/2/6
f 174/2/6 175/2/6 201/2/6
f 173/2/6 174/2/6 201/2/6
f 172/2/6 173/2/6 201/2/6
f 171/2/6 172/2/6 201/2/6
f 170/2/6 171/2/6 201/2/6
f 169/2/6 170/2/6 201/2/6
f 168/2/6 169/2/6 201/2/6
f 167/2/6 168/2/6 201/2/6
f 166/2/6 167/2/6 201/2/6
f 165/2/6 166/2/6 201/2/6
f 164/2/6 165/2/6 201/2/6
f 163/2/6 164/2/6 201/2/6
f 162/2/6 163/2/6 201/2/6
f 161/2/6 162/2/6 201/2/6
f 201/2/6 200/2/6 202/2/6
f 201/1/6 202/1/6 203/1/6
f 203/1/6 202/1/6 204/1/6
