# MagicaVoxel @ Ephtracy

# group
o 

# material
mtllib medium_tree.mtl
usemtl palette

# normals
vn -1 0 0
vn 1 0 0
vn 0 0 1
vn 0 0 -1
vn 0 -1 0
vn 0 1 0

# texcoords
vt 0.00585938 0.5
vt 0.369141 0.5
vt 0.373047 0.5
vt 0.892578 0.5
vt 0.900391 0.5

# verts
v -0.5 1.9 0.1
v -0.5 1.9 -0.2
v -0.5 2.7 0.1
v -0.5 2.7 -0.2
v -0.4 1.7 0
v -0.4 1.7 -0.1
v -0.4 1.8 0
v -0.4 1.8 -0.1
v -0.4 1.9 0
v -0.4 1.9 -0.1
v -0.3 1.2 0.2
v -0.3 1.2 -0.3
v -0.3 1.7 0
v -0.3 1.7 -0.1
v -0.3 1.8 0
v -0.3 1.8 -0.1
v -0.3 1.9 0.1
v -0.3 1.9 0
v -0.3 1.9 -0.1
v -0.3 1.9 -0.2
v -0.3 2.7 0.1
v -0.3 2.7 -0.2
v -0.3 3 0.2
v -0.3 3 -0.3
v -0.1 1.8 -0.3
v -0.1 1.8 -0.5
v -0.1 1.9 0.4
v -0.1 1.9 0.3
v -0.1 1.9 0.2
v -0.1 2 0.3
v -0.1 2 0.2
v -0.1 2.1 -0.3
v -0.1 2.1 -0.5
v -0.1 2.4 0.4
v -0.1 2.4 0.2
v 0 0 0
v 0 0 -0.1
v 0 0.6 0
v 0 0.6 -0.1
v 0 1.2 0
v 0 1.2 -0.1
v 0 1.6 -0.3
v 0 1.6 -0.4
v 0 1.7 0.3
v 0 1.7 0.2
v 0 1.7 -0.3
v 0 1.7 -0.4
v 0 1.8 0.3
v 0 1.8 0.2
v 0 1.8 -0.3
v 0 1.8 -0.4
v 0 1.9 0.3
v 0 1.9 0.2
v 0.1 0 0
v 0.1 0 -0.1
v 0.1 0.6 0
v 0.1 0.6 -0.1
v 0.1 1.2 0
v 0.1 1.2 -0.1
v 0.1 1.6 -0.3
v 0.1 1.6 -0.4
v 0.1 1.7 0.3
v 0.1 1.7 0.2
v 0.1 1.7 -0.3
v 0.1 1.7 -0.4
v 0.1 1.8 0.3
v 0.1 1.8 0.2
v 0.1 1.8 -0.3
v 0.1 1.8 -0.4
v 0.1 1.9 0.3
v 0.1 1.9 0.2
v 0.2 1.8 -0.3
v 0.2 1.8 -0.5
v 0.2 1.9 0.4
v 0.2 1.9 0.2
v 0.2 2.1 -0.3
v 0.2 2.1 -0.5
v 0.2 2.4 0.4
v 0.2 2.4 0.2
v 0.3 1.2 0.2
v 0.3 1.2 -0.3
v 0.3 1.4 0
v 0.3 1.4 -0.1
v 0.3 1.5 0
v 0.3 1.5 -0.1
v 0.3 1.7 0.1
v 0.3 1.7 0
v 0.3 1.7 -0.1
v 0.3 1.7 -0.2
v 0.3 1.9 0.1
v 0.3 1.9 -0.2
v 0.3 3 0.2
v 0.3 3 -0.3
v 0.4 1.4 0
v 0.4 1.4 -0.1
v 0.4 1.5 0
v 0.4 1.5 -0.1
v 0.4 1.7 0
v 0.4 1.7 -0.1
v 0.5 1.7 0.1
v 0.5 1.7 -0.2
v 0.5 1.9 0.1
v 0.5 1.9 -0.2
v -0.1 1.9 0.4
v -0.1 2.4 0.4
v 0.2 1.9 0.4
v 0.2 2.4 0.4
v 0 1.7 0.3
v 0 1.8 0.3
v 0 1.9 0.3
v 0.1 1.7 0.3
v 0.1 1.8 0.3
v 0.1 1.9 0.3
v -0.3 1.2 0.2
v -0.3 3 0.2
v -0.1 1.9 0.2
v -0.1 2 0.2
v -0.1 2.4 0.2
v 0 1.7 0.2
v 0 1.8 0.2
v 0 1.9 0.2
v 0.1 1.7 0.2
v 0.1 1.8 0.2
v 0.1 1.9 0.2
v 0.2 1.9 0.2
v 0.2 2.4 0.2
v 0.3 1.2 0.2
v 0.3 3 0.2
v -0.5 1.9 0.1
v -0.5 2.7 0.1
v -0.3 1.9 0.1
v -0.3 2.7 0.1
v 0.3 1.7 0.1
v 0.3 1.9 0.1
v 0.5 1.7 0.1
v 0.5 1.9 0.1
v -0.4 1.7 0
v -0.4 1.8 0
v -0.4 1.9 0
v -0.3 1.7 0
v -0.3 1.8 0
v -0.3 1.9 0
v 0 0 0
v 0 0.6 0
v 0 1.2 0
v 0.1 0 0
v 0.1 0.6 0
v 0.1 1.2 0
v 0.3 1.4 0
v 0.3 1.5 0
v 0.3 1.7 0
v 0.4 1.4 0
v 0.4 1.5 0
v 0.4 1.7 0
v -0.4 1.7 -0.1
v -0.4 1.8 -0.1
v -0.4 1.9 -0.1
v -0.3 1.7 -0.1
v -0.3 1.8 -0.1
v -0.3 1.9 -0.1
v 0 0 -0.1
v 0 0.6 -0.1
v 0 1.2 -0.1
v 0.1 0 -0.1
v 0.1 0.6 -0.1
v 0.1 1.2 -0.1
v 0.3 1.4 -0.1
v 0.3 1.5 -0.1
v 0.3 1.7 -0.1
v 0.4 1.4 -0.1
v 0.4 1.5 -0.1
v 0.4 1.7 -0.1
v -0.5 1.9 -0.2
v -0.5 2.7 -0.2
v -0.3 1.9 -0.2
v -0.3 2.7 -0.2
v 0.3 1.7 -0.2
v 0.3 1.9 -0.2
v 0.5 1.7 -0.2
v 0.5 1.9 -0.2
v -0.3 1.2 -0.3
v -0.3 3 -0.3
v -0.1 1.8 -0.3
v -0.1 2.1 -0.3
v 0 1.6 -0.3
v 0 1.7 -0.3
v 0 1.8 -0.3
v 0.1 1.6 -0.3
v 0.1 1.7 -0.3
v 0.1 1.8 -0.3
v 0.2 1.8 -0.3
v 0.2 2.1 -0.3
v 0.3 1.2 -0.3
v 0.3 3 -0.3
v 0 1.6 -0.4
v 0 1.7 -0.4
v 0 1.8 -0.4
v 0.1 1.6 -0.4
v 0.1 1.7 -0.4
v 0.1 1.8 -0.4
v -0.1 1.8 -0.5
v -0.1 2.1 -0.5
v 0.2 1.8 -0.5
v 0.2 2.1 -0.5
v 0 0 0
v 0.1 0 0
v 0 0 -0.1
v 0.1 0 -0.1
v -0.3 1.2 0.2
v 0.3 1.2 0.2
v 0 1.2 0
v 0.1 1.2 0
v 0 1.2 -0.1
v 0.1 1.2 -0.1
v -0.3 1.2 -0.3
v 0.3 1.2 -0.3
v 0.3 1.4 0
v 0.4 1.4 0
v 0.3 1.4 -0.1
v 0.4 1.4 -0.1
v 0 1.6 -0.3
v 0.1 1.6 -0.3
v 0 1.6 -0.4
v 0.1 1.6 -0.4
v 0 1.7 0.3
v 0.1 1.7 0.3
v 0 1.7 0.2
v 0.1 1.7 0.2
v 0.3 1.7 0.1
v 0.5 1.7 0.1
v -0.4 1.7 0
v -0.3 1.7 0
v 0.3 1.7 0
v 0.4 1.7 0
v -0.4 1.7 -0.1
v -0.3 1.7 -0.1
v 0.3 1.7 -0.1
v 0.4 1.7 -0.1
v 0.3 1.7 -0.2
v 0.5 1.7 -0.2
v -0.1 1.8 -0.3
v 0 1.8 -0.3
v 0.1 1.8 -0.3
v 0.2 1.8 -0.3
v 0 1.8 -0.4
v 0.1 1.8 -0.4
v -0.1 1.8 -0.5
v 0.2 1.8 -0.5
v -0.1 1.9 0.4
v 0.2 1.9 0.4
v -0.1 1.9 0.3
v 0 1.9 0.3
v 0.1 1.9 0.3
v -0.1 1.9 0.2
v 0 1.9 0.2
v 0.1 1.9 0.2
v 0.2 1.9 0.2
v -0.5 1.9 0.1
v -0.3 1.9 0.1
v -0.4 1.9 0
v -0.3 1.9 0
v -0.4 1.9 -0.1
v -0.3 1.9 -0.1
v -0.5 1.9 -0.2
v -0.3 1.9 -0.2
v 0.3 1.9 0.1
v 0.5 1.9 0.1
v 0.3 1.9 -0.2
v 0.5 1.9 -0.2
v -0.1 2.1 -0.3
v 0.2 2.1 -0.3
v -0.1 2.1 -0.5
v 0.2 2.1 -0.5
v -0.1 2.4 0.4
v 0.2 2.4 0.4
v -0.1 2.4 0.2
v 0.2 2.4 0.2
v -0.5 2.7 0.1
v -0.3 2.7 0.1
v -0.5 2.7 -0.2
v -0.3 2.7 -0.2
v -0.3 3 0.2
v 0.3 3 0.2
v -0.3 3 -0.3
v 0.3 3 -0.3

# faces
f 3/4/1 2/4/1 1/4/1
f 4/4/1 2/4/1 3/4/1
f 7/2/1 6/2/1 5/2/1
f 8/2/1 6/2/1 7/2/1
f 9/3/1 8/3/1 7/3/1
f 10/3/1 8/3/1 9/3/1
f 13/4/1 12/4/1 11/4/1
f 14/4/1 12/4/1 13/4/1
f 15/4/1 13/4/1 11/4/1
f 16/4/1 12/4/1 14/4/1
f 17/4/1 15/4/1 11/4/1
f 18/4/1 15/4/1 17/4/1
f 19/4/1 12/4/1 16/4/1
f 20/4/1 12/4/1 19/4/1
f 21/4/1 17/4/1 11/4/1
f 22/4/1 12/4/1 20/4/1
f 23/4/1 21/4/1 11/4/1
f 23/4/1 22/4/1 21/4/1
f 24/4/1 12/4/1 22/4/1
f 24/4/1 22/4/1 23/4/1
f 30/4/1 28/4/1 27/4/1
f 30/5/1 29/5/1 28/5/1
f 31/5/1 29/5/1 30/5/1
f 32/4/1 26/4/1 25/4/1
f 33/4/1 26/4/1 32/4/1
f 34/4/1 31/4/1 30/4/1
f 34/4/1 30/4/1 27/4/1
f 35/4/1 31/4/1 34/4/1
f 38/2/1 37/2/1 36/2/1
f 39/2/1 37/2/1 38/2/1
f 40/3/1 39/3/1 38/3/1
f 41/3/1 39/3/1 40/3/1
f 46/2/1 43/2/1 42/2/1
f 47/2/1 43/2/1 46/2/1
f 48/2/1 45/2/1 44/2/1
f 49/2/1 45/2/1 48/2/1
f 50/3/1 47/3/1 46/3/1
f 51/3/1 47/3/1 50/3/1
f 52/3/1 49/3/1 48/3/1
f 53/3/1 49/3/1 52/3/1
f 54/2/2 55/2/2 56/2/2
f 56/2/2 55/2/2 57/2/2
f 56/3/2 57/3/2 58/3/2
f 58/3/2 57/3/2 59/3/2
f 60/2/2 61/2/2 64/2/2
f 64/2/2 61/2/2 65/2/2
f 62/2/2 63/2/2 66/2/2
f 66/2/2 63/2/2 67/2/2
f 64/3/2 65/3/2 68/3/2
f 68/3/2 65/3/2 69/3/2
f 66/3/2 67/3/2 70/3/2
f 70/3/2 67/3/2 71/3/2
f 72/4/2 73/4/2 76/4/2
f 76/4/2 73/4/2 77/4/2
f 74/4/2 75/4/2 78/4/2
f 78/4/2 75/4/2 79/4/2
f 80/4/2 81/4/2 82/4/2
f 82/4/2 81/4/2 83/4/2
f 80/4/2 82/4/2 84/4/2
f 83/4/2 81/4/2 85/4/2
f 80/4/2 84/4/2 86/4/2
f 86/4/2 84/4/2 87/4/2
f 85/4/2 81/4/2 88/4/2
f 88/4/2 81/4/2 89/4/2
f 80/4/2 86/4/2 90/4/2
f 89/4/2 81/4/2 91/4/2
f 80/4/2 90/4/2 92/4/2
f 90/4/2 91/4/2 92/4/2
f 91/4/2 81/4/2 93/4/2
f 92/4/2 91/4/2 93/4/2
f 94/2/2 95/2/2 96/2/2
f 96/2/2 95/2/2 97/2/2
f 96/3/2 97/3/2 98/3/2
f 98/3/2 97/3/2 99/3/2
f 100/4/2 101/4/2 102/4/2
f 102/4/2 101/4/2 103/4/2
f 106/4/3 105/4/3 104/4/3
f 107/4/3 105/4/3 106/4/3
f 111/2/3 109/2/3 108/2/3
f 112/3/3 110/3/3 109/3/3
f 112/2/3 109/2/3 111/2/3
f 113/3/3 110/3/3 112/3/3
f 116/4/3 115/4/3 114/4/3
f 117/4/3 115/4/3 116/4/3
f 118/4/3 115/4/3 117/4/3
f 119/4/3 116/4/3 114/4/3
f 120/4/3 116/4/3 119/4/3
f 121/4/3 116/4/3 120/4/3
f 122/4/3 119/4/3 114/4/3
f 125/4/3 123/4/3 122/4/3
f 125/4/3 124/4/3 123/4/3
f 126/4/3 115/4/3 118/4/3
f 127/4/3 125/4/3 122/4/3
f 127/4/3 126/4/3 125/4/3
f 127/4/3 122/4/3 114/4/3
f 128/4/3 115/4/3 126/4/3
f 128/4/3 126/4/3 127/4/3
f 131/4/3 130/4/3 129/4/3
f 132/4/3 130/4/3 131/4/3
f 135/4/3 134/4/3 133/4/3
f 136/4/3 134/4/3 135/4/3
f 140/2/3 138/2/3 137/2/3
f 141/3/3 139/3/3 138/3/3
f 141/2/3 138/2/3 140/2/3
f 142/3/3 139/3/3 141/3/3
f 146/2/3 144/2/3 143/2/3
f 147/3/3 145/3/3 144/3/3
f 147/2/3 144/2/3 146/2/3
f 148/3/3 145/3/3 147/3/3
f 152/2/3 150/2/3 149/2/3
f 153/3/3 151/3/3 150/3/3
f 153/2/3 150/2/3 152/2/3
f 154/3/3 151/3/3 153/3/3
f 155/2/4 156/2/4 158/2/4
f 156/3/4 157/3/4 159/3/4
f 158/2/4 156/2/4 159/2/4
f 159/3/4 157/3/4 160/3/4
f 161/2/4 162/2/4 164/2/4
f 162/3/4 163/3/4 165/3/4
f 164/2/4 162/2/4 165/2/4
f 165/3/4 163/3/4 166/3/4
f 167/2/4 168/2/4 170/2/4
f 168/3/4 169/3/4 171/3/4
f 170/2/4 168/2/4 171/2/4
f 171/3/4 169/3/4 172/3/4
f 173/4/4 174/4/4 175/4/4
f 175/4/4 174/4/4 176/4/4
f 177/4/4 178/4/4 179/4/4
f 179/4/4 178/4/4 180/4/4
f 181/4/4 182/4/4 183/4/4
f 183/4/4 182/4/4 184/4/4
f 181/4/4 183/4/4 185/4/4
f 185/4/4 183/4/4 186/4/4
f 186/4/4 183/4/4 187/4/4
f 181/4/4 185/4/4 188/4/4
f 188/4/4 189/4/4 191/4/4
f 189/4/4 190/4/4 191/4/4
f 184/4/4 182/4/4 192/4/4
f 188/4/4 191/4/4 193/4/4
f 191/4/4 192/4/4 193/4/4
f 181/4/4 188/4/4 193/4/4
f 192/4/4 182/4/4 194/4/4
f 193/4/4 192/4/4 194/4/4
f 195/2/4 196/2/4 198/2/4
f 196/3/4 197/3/4 199/3/4
f 198/2/4 196/2/4 199/2/4
f 199/3/4 197/3/4 200/3/4
f 201/4/4 202/4/4 203/4/4
f 203/4/4 202/4/4 204/4/4
f 207/2/5 206/2/5 205/2/5
f 208/2/5 206/2/5 207/2/5
f 211/4/5 210/4/5 209/4/5
f 212/4/5 210/4/5 211/4/5
f 213/4/5 211/4/5 209/4/5
f 214/4/5 210/4/5 212/4/5
f 215/4/5 213/4/5 209/4/5
f 215/4/5 214/4/5 213/4/5
f 216/4/5 210/4/5 214/4/5
f 216/4/5 214/4/5 215/4/5
f 219/2/5 218/2/5 217/2/5
f 220/2/5 218/2/5 219/2/5
f 223/2/5 222/2/5 221/2/5
f 224/2/5 222/2/5 223/2/5
f 227/2/5 226/2/5 225/2/5
f 228/2/5 226/2/5 227/2/5
f 233/4/5 230/4/5 229/4/5
f 234/4/5 230/4/5 233/4/5
f 235/2/5 232/2/5 231/2/5
f 236/2/5 232/2/5 235/2/5
f 238/4/5 230/4/5 234/4/5
f 239/4/5 238/4/5 237/4/5
f 240/4/5 230/4/5 238/4/5
f 240/4/5 238/4/5 239/4/5
f 245/4/5 242/4/5 241/4/5
f 246/4/5 244/4/5 243/4/5
f 247/4/5 245/4/5 241/4/5
f 247/4/5 246/4/5 245/4/5
f 248/4/5 244/4/5 246/4/5
f 248/4/5 246/4/5 247/4/5
f 251/4/5 250/4/5 249/4/5
f 252/4/5 250/4/5 251/4/5
f 253/4/5 250/4/5 252/4/5
f 254/5/5 252/5/5 251/5/5
f 255/5/5 252/5/5 254/5/5
f 256/4/5 250/4/5 253/4/5
f 257/4/5 250/4/5 256/4/5
f 260/4/5 259/4/5 258/4/5
f 261/4/5 259/4/5 260/4/5
f 262/4/5 260/4/5 258/4/5
f 264/4/5 262/4/5 258/4/5
f 264/4/5 263/4/5 262/4/5
f 265/4/5 263/4/5 264/4/5
f 266/4/6 267/4/6 268/4/6
f 268/4/6 267/4/6 269/4/6
f 270/4/6 271/4/6 272/4/6
f 272/4/6 271/4/6 273/4/6
f 274/4/6 275/4/6 276/4/6
f 276/4/6 275/4/6 277/4/6
f 278/4/6 279/4/6 280/4/6
f 280/4/6 279/4/6 281/4/6
f 282/4/6 283/4/6 284/4/6
f 284/4/6 283/4/6 285/4/6
