# MagicaVoxel @ Ephtracy

# group
o 

# material
mtllib road.mtl
usemtl palette

# normals
vn -1 0 0
vn 1 0 0
vn 0 0 1
vn 0 0 -1
vn 0 -1 0
vn 0 1 0

# texcoords
vt 0.966797 0.5
vt 0.986328 0.5

# verts
v 0 0 0.7
v 0 0 0.6
v 0 0 -0.7
v 0 0 -0.8
v 0 0.1 0.7
v 0 0.1 0.6
v 0 0.1 -0.7
v 0 0.1 -0.8
v 0.3 0 0.7
v 0.3 0 0.6
v 0.3 0 0
v 0.3 0 -0.1
v 0.3 0 -0.7
v 0.3 0 -0.8
v 0.3 0.1 0.7
v 0.3 0.1 0.6
v 0.3 0.1 0
v 0.3 0.1 -0.1
v 0.3 0.1 -0.7
v 0.3 0.1 -0.8
v 0 0 0.7
v 0 0.1 0.7
v 0.3 0 0.7
v 0.3 0.1 0.7
v 0 0 -0.8
v 0 0.1 -0.8
v 0.3 0 -0.8
v 0.3 0.1 -0.8
v 0 0 0.7
v 0.3 0 0.7
v 0 0 0.6
v 0.3 0 0.6
v 0.1 0 0
v 0.3 0 0
v 0.1 0 -0.1
v 0.3 0 -0.1
v 0 0 -0.7
v 0.3 0 -0.7
v 0 0 -0.8
v 0.3 0 -0.8
v 0 0.1 0.7
v 0.3 0.1 0.7
v 0 0.1 0.6
v 0.3 0.1 0.6
v 0.1 0.1 0
v 0.3 0.1 0
v 0.1 0.1 -0.1
v 0.3 0.1 -0.1
v 0 0.1 -0.7
v 0.3 0.1 -0.7
v 0 0.1 -0.8
v 0.3 0.1 -0.8

# faces
f 5/1/1 2/1/1 1/1/1
f 6/2/1 3/2/1 2/2/1
f 6/1/1 2/1/1 5/1/1
f 7/1/1 4/1/1 3/1/1
f 7/2/1 3/2/1 6/2/1
f 8/1/1 4/1/1 7/1/1
f 9/1/2 10/1/2 15/1/2
f 10/2/2 11/2/2 16/2/2
f 15/1/2 10/1/2 16/1/2
f 11/1/2 12/1/2 17/1/2
f 16/2/2 11/2/2 17/2/2
f 12/2/2 13/2/2 18/2/2
f 17/1/2 12/1/2 18/1/2
f 13/1/2 14/1/2 19/1/2
f 18/2/2 13/2/2 19/2/2
f 19/1/2 14/1/2 20/1/2
f 23/1/3 22/1/3 21/1/3
f 24/1/3 22/1/3 23/1/3
f 25/1/4 26/1/4 27/1/4
f 27/1/4 26/1/4 28/1/4
f 31/1/5 30/1/5 29/1/5
f 32/1/5 30/1/5 31/1/5
f 33/2/5 32/2/5 31/2/5
f 34/2/5 32/2/5 33/2/5
f 35/2/5 33/2/5 31/2/5
f 35/1/5 34/1/5 33/1/5
f 36/1/5 34/1/5 35/1/5
f 37/2/5 35/2/5 31/2/5
f 37/2/5 36/2/5 35/2/5
f 38/2/5 36/2/5 37/2/5
f 39/1/5 38/1/5 37/1/5
f 40/1/5 38/1/5 39/1/5
f 41/1/6 42/1/6 43/1/6
f 43/1/6 42/1/6 44/1/6
f 43/2/6 44/2/6 45/2/6
f 45/2/6 44/2/6 46/2/6
f 43/2/6 45/2/6 47/2/6
f 45/1/6 46/1/6 47/1/6
f 47/1/6 46/1/6 48/1/6
f 43/2/6 47/2/6 49/2/6
f 47/2/6 48/2/6 49/2/6
f 49/2/6 48/2/6 50/2/6
f 49/1/6 50/1/6 51/1/6
f 51/1/6 50/1/6 52/1/6
